<svg width="17" height="12" viewBox="0 0 17 12" fill="none" xmlns="http://www.w3.org/2000/svg">
<path d="M8.99308 11.2213C5.65708 11.2213 2.85408 8.7213 1.48108 7.2273C1.17095 6.89417 0.998535 6.45593 0.998535 6.0008C0.998535 5.54566 1.17095 5.10742 1.48108 4.7743C2.85508 3.2793 5.65708 0.779297 8.99308 0.779297C12.3291 0.779297 15.1561 3.3033 16.5341 4.8083C16.8335 5.13283 16.9998 5.55822 16.9998 5.9998C16.9998 6.44138 16.8335 6.86677 16.5341 7.1913C15.1561 8.6973 12.3481 11.2203 8.99308 11.2203V11.2213ZM2.47808 5.6913C2.39991 5.775 2.35643 5.88527 2.35643 5.9998C2.35643 6.11433 2.39991 6.22459 2.47808 6.3083C3.46408 7.3793 6.06908 9.8673 8.99308 9.8673C11.9171 9.8673 14.5391 7.3573 15.5351 6.2763C15.6042 6.20042 15.6425 6.10146 15.6425 5.9988C15.6425 5.89614 15.6042 5.79718 15.5351 5.7213C14.5351 4.6433 11.9351 2.1333 8.99308 2.1333C6.05108 2.1333 3.46408 4.6213 2.47808 5.6913Z" fill="#AAAAAA"/>
<path d="M8.99304 8.38012C8.52232 8.38012 8.06217 8.24053 7.67078 7.97902C7.27939 7.7175 6.97434 7.34579 6.7942 6.9109C6.61407 6.47602 6.56694 5.99748 6.65877 5.5358C6.7506 5.07413 6.97728 4.65005 7.31012 4.3172C7.64297 3.98436 8.06705 3.75768 8.52872 3.66585C8.9904 3.57402 9.46894 3.62115 9.90382 3.80128C10.3387 3.98142 10.7104 4.28647 10.9719 4.67786C11.2335 5.06925 11.373 5.5294 11.373 6.00012C11.373 6.63133 11.1223 7.2367 10.676 7.68303C10.2296 8.12937 9.62425 8.38012 8.99304 8.38012ZM8.99304 4.97412C8.79016 4.97432 8.59189 5.03466 8.4233 5.14752C8.2547 5.26037 8.12335 5.42068 8.04585 5.60818C7.96835 5.79567 7.94817 6.00193 7.98787 6.20089C8.02758 6.39985 8.12537 6.58257 8.2689 6.72596C8.41243 6.86935 8.59525 6.96697 8.79424 7.00648C8.99324 7.04598 9.19948 7.02561 9.3869 6.94792C9.57432 6.87024 9.7345 6.73873 9.8472 6.57003C9.95989 6.40133 10.02 6.203 10.02 6.00012C10.0202 5.86521 9.9937 5.73161 9.94213 5.60695C9.89057 5.48229 9.81492 5.36902 9.71953 5.27363C9.62414 5.17823 9.51087 5.10259 9.38621 5.05103C9.26155 4.99946 9.12794 4.97299 8.99304 4.97312V4.97412Z" fill="#AAAAAA"/>
</svg>
