<svg width="24" height="24" viewBox="0 0 24 24" fill="none" xmlns="http://www.w3.org/2000/svg">
<g clip-path="url(#clip0)">
<path d="M22.9683 23.9823C22.8346 23.9823 22.7022 23.9558 22.5788 23.9043C22.4553 23.8528 22.3434 23.7774 22.2493 23.6823L0.31632 1.7513C0.21515 1.65877 0.133774 1.54671 0.0771022 1.42187C0.0204301 1.29703 -0.0103632 1.162 -0.0134196 1.02493C-0.016476 0.887865 0.0082678 0.7516 0.0593188 0.624358C0.11037 0.497117 0.18667 0.381536 0.283615 0.284591C0.38056 0.187646 0.49614 0.111346 0.623382 0.0602954C0.750623 0.00924437 0.886889 -0.0154995 1.02396 -0.012443C1.16102 -0.00938664 1.29605 0.0214066 1.42089 0.0780787C1.54573 0.134751 1.65779 0.216127 1.75032 0.317297L23.6833 22.2473C23.778 22.3416 23.853 22.4536 23.9043 22.577C23.9555 22.7004 23.9819 22.8327 23.9819 22.9663C23.9819 23.0999 23.9555 23.2322 23.9043 23.3556C23.853 23.4789 23.778 23.591 23.6833 23.6853C23.5899 23.7798 23.4785 23.8548 23.3557 23.9058C23.233 23.9568 23.1013 23.9828 22.9683 23.9823V23.9823Z" fill="#AAAAAA"/>
<path d="M11.9893 21.1103C6.98132 21.1103 2.78132 17.3573 0.72232 15.1173C0.258082 14.617 0.000102043 13.9598 0.000102043 13.2773C0.000102043 12.5948 0.258082 11.9376 0.72232 11.4373C2.52111 9.43443 4.68546 7.79309 7.09932 6.6013C7.34271 6.49519 7.61794 6.48848 7.86621 6.58258C8.11448 6.67669 8.31611 6.86416 8.42801 7.10493C8.53991 7.34571 8.55321 7.6207 8.46507 7.87116C8.37694 8.12161 8.19435 8.32766 7.95632 8.4453C5.79004 9.53618 3.84429 11.0185 2.21732 12.8173C2.09992 12.9429 2.03461 13.1084 2.03461 13.2803C2.03461 13.4522 2.09992 13.6177 2.21732 13.7433C3.69932 15.3673 7.59932 19.0793 11.9893 19.0793C13.9894 19.0113 15.93 18.3819 17.5893 17.2633C17.7024 17.1911 17.8286 17.1418 17.9607 17.1184C18.0928 17.0949 18.2282 17.0977 18.3592 17.1266C18.4903 17.1554 18.6143 17.2099 18.7243 17.2867C18.8343 17.3635 18.9281 17.4612 19.0003 17.5743C19.0725 17.6874 19.1218 17.8136 19.1453 17.9457C19.1687 18.0778 19.1659 18.2132 19.137 18.3442C19.1082 18.4752 19.0538 18.5993 18.9769 18.7093C18.9001 18.8193 18.8024 18.9131 18.6893 18.9853C16.6991 20.3072 14.3776 21.0435 11.9893 21.1103V21.1103Z" fill="#AAAAAA"/>
<path d="M21.3403 16.6263C21.1368 16.6264 20.938 16.5652 20.7697 16.4509C20.6013 16.3365 20.4713 16.1742 20.3963 15.985C20.3214 15.7958 20.3051 15.5884 20.3495 15.3898C20.3939 15.1912 20.497 15.0106 20.6453 14.8713C21.0513 14.4933 21.4333 14.0993 21.8033 13.6973C21.9074 13.5836 21.9651 13.435 21.9651 13.2808C21.9651 13.1266 21.9074 12.978 21.8033 12.8643C20.3533 11.2803 16.5233 7.5843 12.1723 7.4823C11.9034 7.4747 11.6483 7.36114 11.4627 7.16635C11.2771 6.97155 11.1759 6.71131 11.1813 6.4423C11.1834 6.30859 11.212 6.17662 11.2656 6.05411C11.3192 5.93159 11.3967 5.82098 11.4935 5.72873C11.5903 5.63648 11.7046 5.56443 11.8295 5.5168C11.9545 5.46917 12.0877 5.4469 12.2213 5.4513C17.1603 5.5653 21.2833 9.2853 23.3023 11.4913C23.7513 11.9781 24.0005 12.6161 24.0005 13.2783C24.0005 13.9405 23.7513 14.5785 23.3023 15.0653C22.8963 15.5043 22.4903 15.9343 22.0393 16.3493C21.8501 16.5273 21.6001 16.6263 21.3403 16.6263V16.6263Z" fill="#AAAAAA"/>
<path d="M11.9893 16.8493C11.1728 16.8496 10.3809 16.5701 9.7455 16.0573C9.11015 15.5444 8.66978 14.8293 8.49784 14.0311C8.32589 13.2329 8.43276 12.3999 8.80061 11.6709C9.16847 10.942 9.77509 10.3612 10.5193 10.0253C10.6412 9.96531 10.7738 9.93032 10.9094 9.92239C11.045 9.91445 11.1808 9.93373 11.3088 9.97908C11.4369 10.0244 11.5545 10.095 11.6549 10.1865C11.7552 10.278 11.8363 10.3887 11.8932 10.512C11.9501 10.6353 11.9818 10.7688 11.9863 10.9045C11.9909 11.0403 11.9682 11.1756 11.9197 11.3024C11.8711 11.4293 11.7977 11.5452 11.7037 11.6432C11.6097 11.7412 11.497 11.8195 11.3723 11.8733C11.1433 11.974 10.9423 12.129 10.7867 12.3248C10.6311 12.5207 10.5255 12.7516 10.4792 12.9974C10.433 13.2433 10.4473 13.4967 10.521 13.7357C10.5947 13.9748 10.7256 14.1923 10.9024 14.3693C11.0791 14.5464 11.2963 14.6777 11.5352 14.7519C11.7741 14.8261 12.0275 14.841 12.2735 14.7952C12.5194 14.7494 12.7505 14.6443 12.9466 14.4891C13.1428 14.3338 13.2982 14.1331 13.3993 13.9043C13.4543 13.7827 13.5327 13.6731 13.63 13.5818C13.7273 13.4905 13.8416 13.4192 13.9665 13.3721C14.0913 13.325 14.2242 13.3029 14.3576 13.3071C14.491 13.3114 14.6222 13.3418 14.7438 13.3968C14.8654 13.4518 14.975 13.5301 15.0663 13.6274C15.1576 13.7247 15.2289 13.8391 15.276 13.9639C15.3232 14.0888 15.3452 14.2217 15.341 14.3551C15.3367 14.4885 15.3063 14.6197 15.2513 14.7413C14.968 15.37 14.509 15.9035 13.9296 16.2775C13.3501 16.6515 12.675 16.8501 11.9853 16.8493H11.9893Z" fill="#AAAAAA"/>
</g>
<defs>
<clipPath id="clip0">
<rect width="24" height="24" fill="white"/>
</clipPath>
</defs>
</svg>
