<svg width="72" height="72" viewBox="0 0 72 72" fill="none" xmlns="http://www.w3.org/2000/svg">
<path d="M64 0H8C3.58172 0 0 3.58172 0 8V64C0 68.4183 3.58172 72 8 72H64C68.4183 72 72 68.4183 72 64V8C72 3.58172 68.4183 0 64 0Z" fill="#E6CBE4"/>
<path opacity="0.33" d="M15.282 26.218C16.3589 26.1985 17.406 25.8613 18.292 25.2488C19.1779 24.6363 19.8632 23.7758 20.2618 22.7752C20.6604 21.7746 20.7546 20.6786 20.5325 19.6247C20.3105 18.5708 19.782 17.6059 19.0136 16.8513C18.2451 16.0966 17.2708 15.5857 16.2131 15.3828C15.1553 15.1799 14.0611 15.2939 13.068 15.7106C12.0748 16.1273 11.2268 16.8281 10.6304 17.725C10.0341 18.6219 9.71598 19.6749 9.716 20.752C9.72947 22.2149 10.3234 23.6125 11.3672 24.6375C12.411 25.6626 13.8191 26.2311 15.282 26.218V26.218Z" fill="#97CFDC"/>
<path opacity="0.33" d="M66.076 43.015C66.3844 43.0093 66.6843 42.9126 66.938 42.7371C67.1917 42.5616 67.3879 42.3151 67.502 42.0285C67.616 41.7419 67.643 41.4279 67.5793 41.1261C67.5156 40.8243 67.3642 40.5479 67.1441 40.3318C66.924 40.1157 66.645 39.9694 66.342 39.9113C66.039 39.8532 65.7257 39.8859 65.4412 40.0052C65.1567 40.1245 64.9139 40.3252 64.743 40.5821C64.5722 40.8389 64.4811 41.1405 64.481 41.449C64.4828 41.6566 64.5255 41.8618 64.6067 42.0528C64.6879 42.2439 64.8059 42.4171 64.954 42.5625C65.1021 42.7079 65.2775 42.8228 65.47 42.9004C65.6625 42.978 65.8684 43.017 66.076 43.015V43.015Z" fill="#97CFDC"/>
<path d="M60.385 31.038C60.6095 31.0339 60.8278 30.9635 61.0125 30.8358C61.1972 30.708 61.3401 30.5285 61.4231 30.3199C61.5062 30.1113 61.5258 29.8827 61.4795 29.663C61.4331 29.4433 61.3229 29.2421 61.1627 29.0848C61.0025 28.9274 60.7993 28.8209 60.5788 28.7786C60.3582 28.7363 60.1301 28.7601 59.923 28.8469C59.7159 28.9338 59.5391 29.0799 59.4148 29.2669C59.2904 29.4539 59.224 29.6734 59.224 29.898C59.2253 30.0491 59.2564 30.1985 59.3154 30.3376C59.3745 30.4767 59.4604 30.6027 59.5682 30.7086C59.6761 30.8145 59.8037 30.8981 59.9438 30.9546C60.084 31.0111 60.2339 31.0395 60.385 31.038V31.038Z" fill="#97CFDC"/>
<path d="M13.456 47.185C13.6262 47.182 13.7918 47.1289 13.9319 47.0322C14.072 46.9354 14.1804 46.7995 14.2435 46.6414C14.3066 46.4833 14.3215 46.31 14.2865 46.1434C14.2515 45.9768 14.1681 45.8243 14.0467 45.705C13.9253 45.5856 13.7713 45.5048 13.6041 45.4727C13.4369 45.4405 13.264 45.4585 13.107 45.5243C12.95 45.5901 12.8159 45.7008 12.7216 45.8426C12.6273 45.9843 12.577 46.1508 12.577 46.321C12.5791 46.5521 12.6729 46.7729 12.8377 46.9349C13.0025 47.0969 13.2249 47.1869 13.456 47.185V47.185Z" fill="#97CFDC"/>
<path opacity="0.41" d="M54.356 47.099C54.7576 47.0917 55.1481 46.966 55.4785 46.7375C55.809 46.5091 56.0645 46.1882 56.2132 45.815C56.3619 45.4418 56.397 45.0331 56.3142 44.64C56.2314 44.247 56.0343 43.8871 55.7478 43.6056C55.4612 43.3242 55.0979 43.1336 54.7034 43.0579C54.3089 42.9822 53.9008 43.0247 53.5304 43.18C53.16 43.3354 52.8437 43.5967 52.6212 43.9311C52.3988 44.2656 52.2801 44.6583 52.28 45.06C52.285 45.6056 52.5065 46.127 52.8958 46.5093C53.2851 46.8917 53.8103 47.1038 54.356 47.099V47.099Z" stroke="#C3E5F0" stroke-width="0.367" stroke-miterlimit="10"/>
<path d="M16.603 39.363C16.6311 38.8232 16.7659 38.2944 16.9997 37.8071C17.2335 37.3198 17.5616 36.8837 17.965 36.524C15.943 35.771 14.841 34.054 15.285 32.389C15.713 30.798 17.469 29.589 19.603 29.428C19.1743 28.7507 18.9329 27.9717 18.9034 27.1707C18.8739 26.3696 19.0573 25.5751 19.435 24.868C20.2867 23.5073 21.5908 22.4904 23.118 21.996C22.985 21.43 21.897 16.482 24.904 12.953C28.392 8.86 34.334 10.26 35.391 10.509C37.0792 10.9173 38.6662 11.6659 40.055 12.709C41.6185 12.559 43.1961 12.735 44.688 13.226C46.6627 13.9304 48.3442 15.2767 49.4634 17.0495C50.5827 18.8223 51.0752 20.9193 50.862 23.005C51.768 23.1566 52.6115 23.5649 53.2924 24.1816C53.9732 24.7983 54.4628 25.5974 54.703 26.484C54.8077 27.3347 54.6335 28.1964 54.2064 28.9395C53.7794 29.6827 53.1227 30.2671 52.335 30.605C54.445 30.667 56.614 31.065 57.229 32.463C58.703 35.826 51.154 44.818 42.01 47.505C30.57 50.87 16.744 44.328 16.603 39.363Z" fill="#34014B"/>
<path d="M64.265 56.765C63.7463 57.4317 63.2043 58.08 62.639 58.71C59.25 62.4854 55.0995 65.4999 50.461 67.555C45.7977 69.622 40.7534 70.6898 35.6525 70.6898C30.5516 70.6898 25.5073 69.622 20.844 67.555C16.2047 65.4994 12.0535 62.4842 8.664 58.708C8.292 58.298 7.933 57.873 7.58 57.445C12.8035 52.8289 19.1692 49.6978 26.014 48.378C26.423 48.292 26.832 48.211 27.245 48.134C27.585 48.071 27.92 48.013 28.261 47.958C28.316 47.949 28.376 47.936 28.436 47.931C28.611 47.899 28.79 47.877 28.964 47.85C29.185 47.814 29.409 47.783 29.635 47.75C29.755 47.732 29.878 47.714 30.003 47.705C30.15 47.683 30.303 47.665 30.453 47.647C30.582 47.633 30.715 47.619 30.844 47.602L31.244 47.561C31.2533 47.5593 31.2627 47.5593 31.272 47.561C31.585 47.529 31.897 47.498 32.214 47.475C32.255 47.475 32.301 47.475 32.347 47.466C32.3589 47.4677 32.3711 47.4677 32.383 47.466L32.558 47.453C32.898 47.43 33.238 47.408 33.583 47.39L33.867 47.377C34.115 47.364 34.367 47.354 34.616 47.345C34.616 47.345 34.616 47.345 34.626 47.345C34.741 47.345 34.86 47.336 34.98 47.336C35.0226 47.3337 35.0654 47.3337 35.108 47.336C35.508 47.327 35.908 47.323 36.308 47.323C36.708 47.323 37.089 47.323 37.48 47.336C37.535 47.336 37.586 47.336 37.641 47.336C37.719 47.336 37.802 47.336 37.88 47.336C38.211 47.345 38.546 47.359 38.88 47.377C39.28 47.399 39.689 47.421 40.089 47.453C40.31 47.471 40.53 47.489 40.751 47.512C40.871 47.512 40.989 47.53 41.109 47.544C41.426 47.571 41.738 47.607 42.056 47.644C42.13 47.644 42.203 47.657 42.277 47.667L42.515 47.694C42.5183 47.6931 42.5217 47.6931 42.525 47.694C42.525 47.694 42.525 47.694 42.534 47.694C42.7 47.712 42.86 47.735 43.021 47.753C43.221 47.78 43.421 47.807 43.621 47.839L44.315 47.948C44.3416 47.9478 44.368 47.9522 44.393 47.961C44.549 47.983 44.705 48.006 44.862 48.037C45.019 48.068 45.192 48.092 45.353 48.123C45.453 48.141 45.553 48.159 45.647 48.182C45.969 48.241 46.281 48.304 46.598 48.372C53.0976 49.644 59.1729 52.5302 64.265 56.765V56.765Z" fill="#5BB4CF"/>
<path d="M46.595 48.381C45.379 51.646 41.236 54.05 36.308 54.05C31.38 54.05 27.238 51.65 26.017 48.381C32.8028 46.9603 39.8092 46.9603 46.595 48.381V48.381Z" fill="#F87BAD"/>
<path d="M41.544 53.062C39.8786 53.7242 38.1012 54.0593 36.309 54.049C31.383 54.049 27.239 51.649 26.017 48.38C26.425 48.293 26.837 48.212 27.248 48.133C28.539 51.317 32.626 53.643 37.472 53.643C38.8507 53.6479 40.2227 53.4522 41.545 53.062H41.544Z" fill="#F990C0"/>
<path d="M42.515 40.751H29.635V50.035H42.515V40.751Z" fill="#F87BAD"/>
<path d="M42.512 40.26C42.5027 41.07 42.4943 41.88 42.487 42.69C41.5106 43.7381 40.3254 44.5699 39.0077 45.1318C37.6901 45.6937 36.2693 45.9731 34.837 45.952C32.9832 45.86 31.1954 45.235 29.688 44.152V40.252L42.512 40.26Z" fill="#EE4C91"/>
<path d="M47.499 26.704V32.964C47.4988 35.7548 46.449 38.4435 44.558 40.496C44.482 40.577 44.414 40.651 44.338 40.725C42.7486 42.3646 40.708 43.4951 38.475 43.973C36.234 44.4555 33.9005 44.267 31.766 43.431C29.644 42.6023 27.818 41.1585 26.522 39.285C25.2378 37.4268 24.5496 35.2218 24.549 32.963V30.285C24.5533 27.0901 25.7407 24.0101 27.882 21.639C30.0463 19.244 33.004 17.7128 36.209 17.328C36.7514 17.2605 37.2974 17.2271 37.844 17.228C40.3947 17.2243 42.8451 18.221 44.669 20.004C45.5621 20.8768 46.2724 21.9188 46.7583 23.0692C47.2442 24.2196 47.496 25.4552 47.499 26.704Z" fill="#F87BAD"/>
<path d="M47.5 26.704V32.964C47.4998 35.7548 46.45 38.4435 44.559 40.496C44.483 40.577 44.415 40.651 44.339 40.725C42.484 42.5758 40.0524 43.7376 37.447 44.018C39.9382 43.4307 42.1621 42.0286 43.766 40.034C45.3535 38.0581 46.2196 35.5997 46.221 33.065V26.804C46.2184 25.5554 45.967 24.3199 45.4816 23.1696C44.9963 22.0192 44.2866 20.9771 43.394 20.104C41.5716 18.3216 39.1231 17.3246 36.574 17.327H36.217C36.7594 17.2595 37.3054 17.2261 37.852 17.227C40.4014 17.2247 42.8502 18.2217 44.673 20.004C45.5661 20.8768 46.2764 21.9188 46.7623 23.0692C47.2482 24.2196 47.5 25.4552 47.503 26.704H47.5Z" fill="#F990C0"/>
<path d="M30.162 29.081C30.1277 29.0813 30.0938 29.0749 30.062 29.062C30.0306 29.0491 30.002 29.0301 29.978 29.006C29.9541 28.9825 29.935 28.9545 29.922 28.9236C29.9091 28.8927 29.9024 28.8595 29.9024 28.826C29.9024 28.7925 29.9091 28.7593 29.922 28.7284C29.935 28.6975 29.9541 28.6695 29.978 28.646C30.324 28.3069 30.7563 28.0693 31.228 27.959C31.7974 27.829 32.3935 27.8858 32.928 28.121C32.9601 28.1338 32.9893 28.1528 33.014 28.177C33.0386 28.2012 33.0579 28.2301 33.071 28.262C33.0847 28.2936 33.0918 28.3276 33.0918 28.362C33.0918 28.3964 33.0847 28.4304 33.071 28.462C33.0568 28.4935 33.0364 28.5217 33.011 28.545C32.9852 28.5684 32.9549 28.5865 32.922 28.598C32.8565 28.6207 32.7846 28.6168 32.722 28.587C32.2916 28.3975 31.8116 28.3515 31.353 28.456C30.9757 28.5458 30.63 28.7366 30.353 29.008C30.3292 29.0316 30.301 29.0503 30.27 29.063C30.2383 29.0759 30.2043 29.0823 30.17 29.082L30.162 29.081Z" fill="#34014B"/>
<path d="M31.515 29.976L31.326 30.054C31.2408 30.0891 31.1634 30.1406 31.0981 30.2057C31.0329 30.2707 30.9811 30.348 30.9458 30.4331C30.9105 30.5182 30.8924 30.6094 30.8924 30.7016C30.8924 30.7937 30.9106 30.8849 30.946 30.97L31.018 31.139C31.0936 31.3108 31.2336 31.4461 31.4078 31.5158C31.5821 31.5856 31.7767 31.5842 31.95 31.512L32.139 31.434C32.2242 31.3989 32.3016 31.3474 32.3669 31.2823C32.4321 31.2173 32.4839 31.14 32.5192 31.0549C32.5545 30.9698 32.5726 30.8786 32.5726 30.7864C32.5726 30.6943 32.5544 30.6031 32.519 30.518L32.447 30.349C32.3714 30.1772 32.2314 30.0419 32.0572 29.9722C31.8829 29.9024 31.6883 29.9038 31.515 29.976V29.976Z" fill="#190C1D"/>
<path d="M32.109 30.771C32.0954 30.7708 32.0822 30.7666 32.071 30.759C32.0601 30.7512 32.0518 30.7405 32.047 30.728C32.0232 30.6661 31.9852 30.6106 31.936 30.566C31.8869 30.5197 31.8277 30.4854 31.763 30.466C31.7085 30.4551 31.6525 30.4551 31.598 30.466C31.5436 30.4767 31.492 30.4981 31.446 30.529C31.4391 30.5341 31.4313 30.5379 31.423 30.54C31.4061 30.5444 31.3881 30.5419 31.373 30.533C31.3656 30.5286 31.3592 30.5229 31.354 30.516C31.3491 30.5091 31.3457 30.5013 31.344 30.493C31.342 30.4847 31.3418 30.476 31.3434 30.4676C31.3449 30.4591 31.3482 30.4511 31.353 30.444C31.3577 30.4368 31.3638 30.4307 31.371 30.426C31.4316 30.3841 31.5001 30.355 31.5723 30.3406C31.6445 30.3261 31.719 30.3266 31.791 30.342C31.8772 30.3647 31.9567 30.4075 32.023 30.467C32.0887 30.5261 32.1392 30.6002 32.17 30.683C32.176 30.6984 32.176 30.7156 32.17 30.731C32.1625 30.7461 32.1497 30.7578 32.134 30.764C32.127 30.765 32.12 30.765 32.113 30.764L32.109 30.771Z" fill="white"/>
<path d="M40.423 29.081C40.4745 29.0812 40.5249 29.0663 40.568 29.038C40.6122 29.0107 40.6471 28.9706 40.668 28.923C40.6876 28.8762 40.6925 28.8246 40.682 28.775C40.6716 28.7254 40.6465 28.6801 40.61 28.645C40.264 28.3059 39.8317 28.0683 39.36 27.958C38.7906 27.828 38.1945 27.8848 37.66 28.12C37.6279 28.1328 37.5987 28.1518 37.574 28.176C37.5494 28.2002 37.53 28.2291 37.517 28.261C37.5033 28.2926 37.4962 28.3266 37.4962 28.361C37.4962 28.3954 37.5033 28.4294 37.517 28.461C37.5315 28.4925 37.5522 28.5208 37.578 28.544C37.6038 28.5674 37.6341 28.5855 37.667 28.597C37.7325 28.6197 37.8044 28.6158 37.867 28.586C38.2974 28.3965 38.7774 28.3505 39.236 28.455C39.6133 28.5448 39.959 28.7356 40.236 29.007C40.2601 29.0307 40.2887 29.0493 40.32 29.062C40.3518 29.0748 40.3857 29.0813 40.42 29.081H40.423Z" fill="#34014B"/>
<path d="M38.135 30.349L38.063 30.518C38.0276 30.6031 38.0094 30.6943 38.0094 30.7864C38.0094 30.8786 38.0275 30.9698 38.0628 31.0549C38.0981 31.14 38.1499 31.2173 38.2151 31.2823C38.2804 31.3474 38.3578 31.3989 38.443 31.434L38.632 31.512C38.8052 31.5845 39 31.586 39.1743 31.5162C39.3486 31.4464 39.4886 31.311 39.564 31.139L39.636 30.97C39.6714 30.8849 39.6896 30.7937 39.6896 30.7016C39.6896 30.6094 39.6715 30.5182 39.6362 30.4331C39.6009 30.348 39.5491 30.2707 39.4839 30.2057C39.4186 30.1406 39.3412 30.0891 39.256 30.054L39.067 29.976C38.8937 29.9038 38.6991 29.9024 38.5248 29.9722C38.3506 30.0419 38.2106 30.1772 38.135 30.349V30.349Z" fill="#190C1D"/>
<path d="M38.475 30.771C38.4886 30.771 38.5019 30.7668 38.513 30.759C38.524 30.7514 38.5324 30.7406 38.537 30.728C38.5606 30.6657 38.5987 30.6098 38.648 30.565C38.6974 30.5185 38.757 30.4843 38.822 30.465C38.8762 30.4538 38.9321 30.4537 38.9864 30.4645C39.0407 30.4753 39.0922 30.4969 39.138 30.528C39.1488 30.5352 39.1615 30.539 39.1745 30.539C39.1875 30.539 39.2002 30.5352 39.211 30.528C39.2184 30.5237 39.2249 30.5179 39.23 30.511C39.2375 30.5005 39.2415 30.4879 39.2415 30.475C39.2415 30.4621 39.2375 30.4495 39.23 30.439C39.2253 30.4318 39.2192 30.4257 39.212 30.421C39.1519 30.3793 39.0838 30.3503 39.012 30.336C38.9398 30.3211 38.8652 30.3211 38.793 30.336C38.7068 30.3587 38.6273 30.4015 38.561 30.461C38.4953 30.5201 38.4448 30.5942 38.414 30.677C38.4081 30.6924 38.4081 30.7095 38.414 30.725C38.4215 30.7401 38.4343 30.7518 38.45 30.758C38.457 30.759 38.464 30.759 38.471 30.758L38.475 30.771Z" fill="white"/>
<path d="M35.834 35.438C35.7525 35.4379 35.6713 35.4285 35.592 35.41C35.3783 35.3584 35.1844 35.2454 35.034 35.085C35.0167 35.0667 35.0032 35.0452 34.9943 35.0217C34.9854 34.9981 34.9813 34.973 34.9822 34.9479C34.9831 34.9227 34.9891 34.898 34.9997 34.8752C35.0103 34.8524 35.0254 34.8319 35.044 34.815C35.0824 34.7812 35.1323 34.7633 35.1835 34.7652C35.2347 34.767 35.2831 34.7885 35.319 34.825C35.417 34.9294 35.543 35.0034 35.682 35.038C35.8028 35.0671 35.9294 35.0612 36.047 35.021C36.164 34.9784 36.2635 34.8982 36.33 34.793C36.3947 34.6881 36.4268 34.5662 36.422 34.443C36.4213 34.4178 36.4256 34.3927 36.4347 34.3692C36.4438 34.3456 36.4575 34.3242 36.475 34.306C36.5108 34.2689 36.5595 34.247 36.611 34.245C36.6617 34.2457 36.7104 34.2649 36.748 34.299C36.7852 34.3326 36.8084 34.379 36.813 34.429C36.8195 34.6277 36.7674 34.8238 36.663 34.993C36.5514 35.1697 36.3843 35.3044 36.188 35.376C36.0746 35.4175 35.9547 35.4384 35.834 35.438Z" fill="#34014B"/>
<path d="M37.172 39.674C37.1357 39.6746 37.1004 39.6626 37.072 39.64C37.0445 39.6181 37.0254 39.5874 37.018 39.553C37.011 39.5191 37.0159 39.4837 37.032 39.453C37.0486 39.4219 37.0755 39.3976 37.108 39.384C37.2788 39.3142 37.4183 39.1844 37.5 39.019C37.581 38.8547 37.5977 38.666 37.547 38.49C37.5146 38.3972 37.4628 38.3123 37.395 38.241C37.3264 38.1712 37.2439 38.1163 37.153 38.08C37.0513 38.0374 36.9419 38.0161 36.8317 38.0174C36.7214 38.0188 36.6126 38.0428 36.512 38.088C36.4742 38.1033 36.4318 38.1033 36.394 38.088C36.3557 38.0742 36.3244 38.0458 36.307 38.009C36.2993 37.9906 36.2953 37.9709 36.2953 37.951C36.2953 37.9311 36.2993 37.9114 36.307 37.893C36.3214 37.8552 36.3501 37.8246 36.387 37.808C36.5271 37.7449 36.6787 37.7114 36.8324 37.7095C36.986 37.7076 37.1384 37.7374 37.28 37.797C37.4107 37.85 37.5289 37.9297 37.627 38.031C37.7244 38.1318 37.7994 38.2521 37.847 38.384C37.9246 38.6318 37.9053 38.8998 37.793 39.134C37.6792 39.3698 37.4817 39.5548 37.239 39.653C37.2194 39.6613 37.1983 39.6654 37.177 39.665L37.172 39.674Z" fill="#C2000B"/>
<path d="M42.183 35.825C42.524 35.8189 42.8556 35.7122 43.1361 35.5183C43.4167 35.3244 43.6337 35.052 43.76 34.7352C43.8862 34.4184 43.9161 34.0714 43.8459 33.7377C43.7756 33.404 43.6084 33.0985 43.3651 32.8595C43.1218 32.6205 42.8134 32.4587 42.4785 32.3943C42.1436 32.33 41.7971 32.3661 41.4826 32.4979C41.1681 32.6298 40.8996 32.8517 40.7107 33.1356C40.5218 33.4196 40.4211 33.753 40.421 34.094C40.4252 34.5572 40.6132 34.9997 40.9436 35.3243C41.274 35.6489 41.7198 35.829 42.183 35.825V35.825Z" fill="#F664AD"/>
<path d="M29.119 36.126C29.46 36.1199 29.7915 36.0132 30.0721 35.8193C30.3527 35.6254 30.5697 35.353 30.696 35.0362C30.8222 34.7194 30.8521 34.3724 30.7819 34.0387C30.7116 33.705 30.5444 33.3995 30.3011 33.1605C30.0578 32.9215 29.7494 32.7597 29.4145 32.6953C29.0796 32.631 28.7331 32.6671 28.4186 32.7989C28.1041 32.9308 27.8356 33.1527 27.6467 33.4366C27.4578 33.7206 27.3571 34.054 27.357 34.395C27.3612 34.8582 27.5492 35.3007 27.8796 35.6253C28.21 35.9499 28.6558 36.13 29.119 36.126V36.126Z" fill="#F664AD"/>
<path d="M46.5 31.338C46.5841 30.8395 46.8301 30.3826 47.2 30.038C47.5722 29.6897 48.0466 29.4702 48.553 29.412C49.0259 29.4275 49.4815 29.5939 49.853 29.887C50.2213 30.1776 50.4843 30.5808 50.602 31.035C50.779 31.673 50.502 32.241 49.953 33.376C49.359 34.606 48.777 35.806 47.777 35.906C47.4725 35.9313 47.1671 35.8688 46.897 35.726L46.5 31.338Z" fill="#F990C0"/>
<path d="M25.413 31.248C25.3284 30.7497 25.0824 30.2929 24.713 29.948C24.3407 29.5998 23.8664 29.3804 23.36 29.322C22.8976 29.3639 22.4574 29.54 22.0937 29.8287C21.7301 30.1174 21.4587 30.5061 21.313 30.947C20.481 33.075 22.806 36.164 24.297 35.999C24.5696 35.9592 24.8221 35.8326 25.017 35.638L25.413 31.248Z" fill="#F87BAD"/>
<path d="M24.882 27.413C25.6244 25.2207 27.1752 23.3942 29.218 22.306C30.4885 21.6643 31.8947 21.3378 33.318 21.354C33.864 22.054 37.434 26.493 43.018 26.499C44.5402 26.494 46.045 26.1746 47.438 25.561C47.7774 24.5811 47.8332 23.5252 47.599 22.515C46.937 19.883 44.226 18.584 42.24 17.667C39.156 16.25 33.391 13.591 28.514 16.491C25.089 18.528 22.399 23.128 23.724 25.991C23.9911 26.5505 24.3882 27.0381 24.882 27.413V27.413Z" fill="#34014B"/>
<path d="M23.125 22.001C22.85 21.643 20.204 18.023 21.653 13.986C22.4629 11.9191 24.0508 10.2522 26.076 9.343C30.13 7.417 35.656 8.779 40.063 12.705" stroke="#34024A" stroke-width="0.183" stroke-linecap="round" stroke-linejoin="round"/>
<path d="M38.568 25.122C39.3411 25.9199 40.2789 26.5397 41.316 26.938C43.3326 27.6476 45.5436 27.5628 47.5 26.701" stroke="#34024A" stroke-width="0.183" stroke-linecap="round" stroke-linejoin="round"/>
</svg>
