<svg width="34" height="34" viewBox="0 0 34 34" fill="none" xmlns="http://www.w3.org/2000/svg">
<path d="M30 1.00001H5C2.79086 1.00001 1 2.79087 1 5.00001V30C1 32.2091 2.79086 34 5 34H30C32.2091 34 34 32.2091 34 30V5.00001C34 2.79087 32.2091 1.00001 30 1.00001Z" fill="#E6CBE4"/>
<path opacity="0.33" d="M8.008 13.024C8.50183 13.0151 8.98203 12.8606 9.38834 12.5798C9.79465 12.299 10.109 11.9044 10.2918 11.4456C10.4747 10.9868 10.518 10.4842 10.4162 10.0009C10.3145 9.5176 10.0722 9.07512 9.71988 8.72899C9.36754 8.38287 8.92082 8.14853 8.43578 8.05539C7.95074 7.96225 7.44899 8.01445 6.99351 8.20545C6.53803 8.39645 6.14912 8.71774 5.87558 9.12898C5.60205 9.54022 5.45608 10.0231 5.456 10.517C5.46207 11.1878 5.73433 11.8288 6.2129 12.2989C6.69147 12.7691 7.33717 13.0299 8.008 13.024Z" fill="#97CFDC"/>
<path opacity="0.33" d="M31.303 20.727C31.4444 20.7244 31.5819 20.6802 31.6983 20.5997C31.8146 20.5193 31.9046 20.4063 31.957 20.2749C32.0094 20.1435 32.0217 19.9995 31.9926 19.8611C31.9634 19.7227 31.894 19.596 31.7931 19.4969C31.6922 19.3978 31.5643 19.3307 31.4254 19.304C31.2864 19.2773 31.1428 19.2923 31.0123 19.347C30.8819 19.4017 30.7705 19.4937 30.6922 19.6115C30.6138 19.7293 30.572 19.8676 30.572 20.009C30.5738 20.2011 30.6519 20.3846 30.7889 20.5193C30.926 20.6539 31.1109 20.7286 31.303 20.727V20.727Z" fill="#97CFDC"/>
<path d="M28.692 15.234C28.795 15.2322 28.8953 15.2001 28.9801 15.1415C29.0649 15.083 29.1305 15.0007 29.1687 14.905C29.2069 14.8093 29.216 14.7044 29.1948 14.6036C29.1736 14.5027 29.1231 14.4104 29.0497 14.3381C28.9762 14.2659 28.883 14.217 28.7818 14.1975C28.6806 14.178 28.5759 14.1889 28.4808 14.2287C28.3858 14.2686 28.3046 14.3356 28.2476 14.4214C28.1905 14.5072 28.16 14.608 28.16 14.711C28.1605 14.7803 28.1747 14.8488 28.2017 14.9126C28.2288 14.9764 28.2681 15.0343 28.3175 15.0828C28.3669 15.1314 28.4255 15.1698 28.4897 15.1957C28.554 15.2216 28.6227 15.2347 28.692 15.234Z" fill="#97CFDC"/>
<path d="M7.171 22.639C7.25011 22.639 7.32745 22.6155 7.39322 22.5716C7.459 22.5276 7.51027 22.4652 7.54055 22.3921C7.57082 22.319 7.57874 22.2386 7.56331 22.161C7.54788 22.0834 7.50978 22.0121 7.45384 21.9562C7.3979 21.9002 7.32662 21.8621 7.24903 21.8467C7.17144 21.8313 7.09101 21.8392 7.01792 21.8695C6.94483 21.8997 6.88236 21.951 6.83841 22.0168C6.79446 22.0826 6.771 22.1599 6.771 22.239C6.771 22.3451 6.81314 22.4468 6.88815 22.5218C6.96317 22.5969 7.06491 22.639 7.171 22.639V22.639Z" fill="#97CFDC"/>
<path opacity="0.41" d="M25.929 22.6C26.1132 22.5967 26.2922 22.539 26.4437 22.4342C26.5953 22.3295 26.7124 22.1823 26.7806 22.0112C26.8488 21.8401 26.8649 21.6526 26.8269 21.4724C26.7889 21.2922 26.6986 21.1272 26.5672 20.9981C26.4357 20.869 26.2691 20.7816 26.0882 20.7469C25.9074 20.7122 25.7202 20.7317 25.5504 20.8029C25.3805 20.8742 25.2355 20.994 25.1335 21.1474C25.0315 21.3007 24.977 21.4808 24.977 21.665C24.9794 21.9152 25.081 22.1542 25.2595 22.3295C25.438 22.5049 25.6788 22.6021 25.929 22.6V22.6Z" stroke="#C3E5F0" stroke-width="0.367" stroke-miterlimit="10"/>
<path d="M8.616 19.049C8.6292 18.8018 8.69122 18.5596 8.79849 18.3365C8.90576 18.1134 9.05616 17.9137 9.241 17.749C8.83371 17.6467 8.48038 17.3937 8.2523 17.0411C8.02421 16.6884 7.93834 16.2624 8.012 15.849C8.16677 15.4495 8.43863 15.1061 8.79195 14.8637C9.14527 14.6214 9.56357 14.4915 9.992 14.491C9.79547 14.1804 9.6848 13.8232 9.67127 13.4559C9.65775 13.0886 9.74185 12.7242 9.915 12.4C10.3056 11.776 10.9036 11.3097 11.604 11.083C11.4301 10.3738 11.4133 9.63524 11.5547 8.9189C11.6962 8.20256 11.9925 7.5258 12.423 6.93601C14.023 5.05901 16.748 5.70101 17.233 5.81501C18.0071 6.00168 18.7349 6.34434 19.372 6.82201C20.0891 6.75313 20.8127 6.83383 21.497 7.05901C22.4029 7.38305 23.1739 8.00153 23.6868 8.81553C24.1997 9.62952 24.4247 10.592 24.326 11.549C24.742 11.6188 25.1292 11.8067 25.4415 12.0904C25.7537 12.3741 25.9778 12.7415 26.087 13.149C26.1355 13.5395 26.0558 13.9351 25.86 14.2764C25.6641 14.6176 25.3626 14.886 25.001 15.041C25.969 15.069 26.964 15.252 27.246 15.893C27.924 17.433 24.46 21.557 20.266 22.793C15.019 24.329 8.678 21.329 8.616 19.049Z" fill="#34014B"/>
<path d="M30.472 27.031C30.234 27.3377 29.9853 27.635 29.726 27.923C28.1719 29.655 26.2684 31.0381 24.141 31.981C22.0023 32.929 19.6889 33.4188 17.3495 33.4188C15.0101 33.4188 12.6967 32.929 10.558 31.981C8.43034 31.0384 6.52654 29.6557 4.972 27.924C4.801 27.736 4.637 27.541 4.472 27.345C6.86756 25.2281 9.78693 23.7922 12.926 23.187C13.113 23.148 13.301 23.111 13.491 23.075C13.647 23.046 13.801 23.019 13.957 22.994C13.982 22.994 14.01 22.984 14.037 22.982C14.117 22.967 14.199 22.957 14.279 22.945C14.379 22.928 14.479 22.914 14.587 22.901C14.642 22.893 14.699 22.885 14.756 22.88C14.813 22.875 14.893 22.861 14.962 22.853C15.031 22.845 15.082 22.84 15.141 22.832L15.322 22.813H15.335C15.478 22.798 15.621 22.784 15.767 22.774C15.786 22.774 15.807 22.774 15.828 22.774H15.845L15.925 22.768C16.081 22.757 16.237 22.747 16.395 22.739L16.525 22.733C16.639 22.727 16.753 22.722 16.868 22.718C16.921 22.718 16.975 22.718 17.03 22.718C17.0497 22.7169 17.0693 22.7169 17.089 22.718C17.272 22.718 17.455 22.712 17.641 22.712C17.827 22.712 17.999 22.712 18.178 22.718C18.203 22.718 18.227 22.718 18.252 22.718C18.277 22.718 18.326 22.718 18.362 22.718C18.514 22.718 18.667 22.729 18.819 22.737C19.004 22.747 19.19 22.757 19.373 22.772C19.473 22.78 19.573 22.789 19.673 22.799C19.728 22.799 19.782 22.807 19.837 22.814C19.983 22.826 20.126 22.843 20.271 22.859C20.305 22.859 20.338 22.865 20.371 22.87L20.48 22.882L20.703 22.909C20.796 22.921 20.886 22.934 20.979 22.948L21.297 22.998C21.3093 22.9979 21.3214 22.9999 21.333 23.004C21.405 23.014 21.476 23.025 21.548 23.039C21.62 23.053 21.7 23.064 21.773 23.078C21.817 23.086 21.864 23.095 21.908 23.105C22.055 23.132 22.199 23.161 22.344 23.192C25.3234 23.7739 28.1087 25.0954 30.444 27.035L30.472 27.031Z" fill="#5BB4CF"/>
<path d="M22.369 23.188C21.811 24.688 19.911 25.788 17.651 25.788C15.391 25.788 13.492 24.688 12.932 23.188C16.0439 22.5365 19.2571 22.5365 22.369 23.188V23.188Z" fill="#F87BAD"/>
<path d="M20.053 25.335C19.2895 25.6387 18.4747 25.7925 17.653 25.788C15.394 25.788 13.493 24.688 12.933 23.188C13.12 23.148 13.309 23.111 13.497 23.075C14.089 24.535 15.963 25.602 18.186 25.602C18.8183 25.6044 19.4475 25.5148 20.054 25.336L20.053 25.335Z" fill="#F990C0"/>
<path d="M20.496 19.689H14.591V23.947H20.497L20.496 19.689Z" fill="#F87BAD"/>
<path d="M20.496 19.464C20.492 19.8353 20.488 20.2067 20.484 20.578C20.0369 21.0591 19.4938 21.4412 18.89 21.6996C18.2861 21.9579 17.6348 22.0868 16.978 22.078C16.1282 22.0365 15.3085 21.7507 14.617 21.255V19.464H20.496Z" fill="#EE4C91"/>
<path d="M22.784 13.246V16.118C22.7836 17.3978 22.3021 18.6307 21.435 19.572C21.4 19.609 21.369 19.643 21.335 19.677C20.6061 20.4292 19.6702 20.9478 18.646 21.167C17.6182 21.3882 16.5479 21.3015 15.569 20.918C14.5978 20.5375 13.7622 19.8759 13.169 19.018C12.5815 18.1651 12.2676 17.1536 12.269 16.118V14.889C12.2711 13.4238 12.8158 12.0113 13.798 10.924C14.7906 9.8256 16.1471 9.12339 17.617 8.94701C17.8658 8.91598 18.1163 8.90061 18.367 8.90101C19.5364 8.89952 20.6598 9.35655 21.496 10.174C21.9061 10.5741 22.2322 11.052 22.4554 11.5796C22.6787 12.1072 22.7944 12.6741 22.796 13.247L22.784 13.246Z" fill="#F87BAD"/>
<path d="M22.784 13.246V16.118C22.7836 17.3978 22.3021 18.6307 21.435 19.572C21.4 19.609 21.369 19.643 21.335 19.677C20.4842 20.5258 19.3689 21.0585 18.174 21.187C19.3172 20.9182 20.3379 20.2751 21.074 19.36C21.8029 18.4528 22.2002 17.3238 22.2 16.16V13.292C22.1984 12.7193 22.0825 12.1526 21.8593 11.6251C21.6361 11.0976 21.31 10.62 20.9 10.22C20.0641 9.4027 18.9411 8.94567 17.772 8.94701H17.608C17.8568 8.91598 18.1073 8.90061 18.358 8.90101C19.5277 8.89936 20.6515 9.3564 21.488 10.174C21.8981 10.5741 22.2242 11.052 22.4474 11.5796C22.6707 12.1072 22.7864 12.6741 22.788 13.247L22.784 13.246Z" fill="#F990C0"/>
<path d="M14.83 14.337C14.8142 14.3371 14.7986 14.334 14.784 14.328C14.7694 14.322 14.7561 14.3132 14.745 14.302C14.7341 14.2912 14.7254 14.2784 14.7195 14.2642C14.7136 14.25 14.7105 14.2349 14.7105 14.2195C14.7105 14.2042 14.7136 14.189 14.7195 14.1748C14.7254 14.1606 14.7341 14.1478 14.745 14.137C14.9036 13.9816 15.1018 13.8726 15.318 13.822C15.5795 13.7619 15.8534 13.7879 16.099 13.896C16.114 13.9019 16.1276 13.9107 16.139 13.922C16.1502 13.9331 16.1591 13.9464 16.165 13.961C16.1712 13.9754 16.1744 13.9909 16.1744 14.0065C16.1744 14.0222 16.1712 14.0376 16.165 14.052C16.1583 14.0664 16.1488 14.0794 16.137 14.09C16.1251 14.1007 16.1111 14.1088 16.096 14.114C16.0809 14.1194 16.065 14.1217 16.049 14.1208C16.033 14.12 16.0174 14.1159 16.003 14.109C15.8056 14.0218 15.5853 14.0007 15.375 14.049C15.2015 14.0899 15.0424 14.1774 14.915 14.302C14.9041 14.3127 14.8912 14.3212 14.877 14.327C14.8627 14.3329 14.8474 14.336 14.832 14.336L14.83 14.337Z" fill="#34014B"/>
<path d="M15.452 14.747L15.365 14.783C15.3258 14.7989 15.2901 14.8224 15.2601 14.8522C15.2301 14.882 15.2063 14.9175 15.1901 14.9566C15.1739 14.9957 15.1656 15.0376 15.1658 15.0799C15.1659 15.1222 15.1745 15.164 15.191 15.203L15.224 15.28C15.2587 15.3586 15.3229 15.4206 15.4027 15.4525C15.4825 15.4845 15.5716 15.4839 15.651 15.451L15.738 15.415C15.7772 15.3991 15.8129 15.3756 15.8429 15.3458C15.8729 15.316 15.8967 15.2805 15.9129 15.2414C15.9291 15.2024 15.9374 15.1604 15.9372 15.1181C15.9371 15.0758 15.9285 15.034 15.912 14.995L15.879 14.918C15.8443 14.8394 15.7802 14.7774 15.7004 14.7455C15.6205 14.7135 15.5314 14.7141 15.452 14.747Z" fill="#190C1D"/>
<path d="M15.725 15.112C15.7189 15.1117 15.713 15.1096 15.708 15.106C15.703 15.1025 15.6992 15.0976 15.697 15.092C15.686 15.0637 15.6686 15.0383 15.646 15.018C15.6231 14.9974 15.5957 14.9823 15.566 14.974C15.5411 14.969 15.5155 14.969 15.4906 14.974C15.4657 14.979 15.4421 14.9888 15.421 15.003L15.41 15.008H15.398H15.387C15.3835 15.006 15.3804 15.0033 15.378 15C15.3773 14.9964 15.3773 14.9926 15.378 14.989C15.3751 14.982 15.3751 14.9741 15.378 14.967C15.3801 14.9638 15.3828 14.9611 15.386 14.959C15.4139 14.9398 15.4454 14.9266 15.4786 14.9201C15.5118 14.9135 15.5459 14.9138 15.579 14.921C15.6183 14.9313 15.6547 14.9509 15.685 14.978C15.7151 15.0054 15.7381 15.0397 15.752 15.078C15.7548 15.0851 15.7548 15.0929 15.752 15.1C15.7484 15.107 15.7424 15.1123 15.735 15.115H15.726L15.725 15.112Z" fill="white"/>
<path d="M19.538 14.337C19.5615 14.3369 19.5844 14.33 19.604 14.317C19.6237 14.3042 19.639 14.2857 19.648 14.264C19.6572 14.2426 19.6596 14.2189 19.655 14.196C19.6503 14.1731 19.6388 14.1522 19.622 14.136C19.4634 13.9806 19.2652 13.8716 19.049 13.821C18.7875 13.7609 18.5136 13.7869 18.268 13.895C18.253 13.9009 18.2394 13.9097 18.228 13.921C18.2168 13.9321 18.2079 13.9454 18.202 13.96C18.1958 13.9744 18.1926 13.9899 18.1926 14.0055C18.1926 14.0212 18.1958 14.0366 18.202 14.051C18.2087 14.0654 18.2182 14.0784 18.23 14.089C18.2419 14.0997 18.2559 14.1078 18.271 14.113C18.2861 14.1184 18.302 14.1207 18.318 14.1198C18.334 14.119 18.3496 14.1149 18.364 14.108C18.5614 14.0208 18.7817 13.9997 18.992 14.048C19.1655 14.0889 19.3246 14.1764 19.452 14.301C19.4632 14.3118 19.4765 14.3203 19.491 14.326C19.5056 14.332 19.5212 14.3351 19.537 14.335L19.538 14.337Z" fill="#34014B"/>
<path d="M18.491 14.919L18.458 14.996C18.4415 15.035 18.4329 15.0768 18.4328 15.1191C18.4326 15.1614 18.4409 15.2034 18.4571 15.2424C18.4733 15.2815 18.4971 15.317 18.5271 15.3468C18.5571 15.3766 18.5928 15.4001 18.632 15.416L18.719 15.452C18.7984 15.4849 18.8875 15.4855 18.9673 15.4535C19.0471 15.4216 19.1113 15.3596 19.146 15.281L19.179 15.204C19.1955 15.165 19.2041 15.1232 19.2042 15.0809C19.2044 15.0386 19.1961 14.9967 19.1799 14.9576C19.1637 14.9185 19.1399 14.883 19.1099 14.8532C19.0799 14.8234 19.0442 14.7999 19.005 14.784L18.918 14.748C18.8386 14.7151 18.7495 14.7145 18.6696 14.7465C18.5898 14.7784 18.5257 14.8404 18.491 14.919Z" fill="#190C1D"/>
<path d="M18.645 15.112C18.651 15.1121 18.657 15.1104 18.662 15.107C18.667 15.1036 18.6709 15.0987 18.673 15.093C18.6838 15.0643 18.7013 15.0386 18.724 15.018C18.7469 14.9974 18.7743 14.9823 18.804 14.974C18.8289 14.9689 18.8545 14.9688 18.8794 14.9738C18.9043 14.9788 18.928 14.9887 18.949 15.003L18.96 15.008H18.972H18.983C18.9865 15.006 18.9896 15.0033 18.992 15C18.9954 14.9952 18.9971 14.9894 18.9971 14.9835C18.9971 14.9776 18.9954 14.9719 18.992 14.967C18.9899 14.9638 18.9872 14.9611 18.984 14.959C18.9563 14.9398 18.925 14.9266 18.892 14.92C18.859 14.9132 18.825 14.9132 18.792 14.92C18.7527 14.9304 18.7163 14.9499 18.686 14.977C18.6559 15.0044 18.6329 15.0387 18.619 15.077C18.6163 15.0841 18.6163 15.0919 18.619 15.099C18.6226 15.106 18.6286 15.1113 18.636 15.114H18.646L18.645 15.112Z" fill="white"/>
<path d="M17.434 17.252C17.3963 17.252 17.3587 17.2476 17.322 17.239C17.224 17.2154 17.135 17.1636 17.066 17.09C17.0578 17.0819 17.0512 17.0723 17.0468 17.0616C17.0423 17.051 17.04 17.0395 17.04 17.028C17.04 17.0165 17.0423 17.005 17.0468 16.9944C17.0512 16.9838 17.0578 16.9741 17.066 16.966C17.0828 16.9495 17.1054 16.9403 17.129 16.9403C17.1526 16.9403 17.1752 16.9495 17.192 16.966C17.2368 17.0148 17.2948 17.0496 17.359 17.066C17.4143 17.0792 17.4722 17.0764 17.526 17.058C17.5791 17.0397 17.6247 17.0046 17.656 16.958C17.6855 16.91 17.7001 16.8543 17.698 16.798C17.6976 16.7864 17.6995 16.7749 17.7036 16.7641C17.7078 16.7533 17.714 16.7434 17.722 16.735C17.7382 16.7179 17.7605 16.7079 17.784 16.707C17.8073 16.7078 17.8296 16.7166 17.847 16.732C17.8642 16.7475 17.8749 16.7689 17.877 16.792C17.88 16.8833 17.856 16.9733 17.808 17.051C17.7568 17.1322 17.6802 17.1941 17.59 17.227C17.5398 17.2441 17.487 17.2526 17.434 17.252Z" fill="#34014B"/>
<path d="M18.047 19.195C18.0307 19.1952 18.0149 19.1899 18.002 19.18C17.9893 19.17 17.9805 19.1558 17.977 19.14C17.9739 19.1243 17.9764 19.1081 17.984 19.094C17.9916 19.0796 18.004 19.0683 18.019 19.062C18.0973 19.0301 18.1614 18.9707 18.199 18.895C18.2362 18.8199 18.244 18.7336 18.221 18.653C18.2055 18.6111 18.1813 18.5729 18.15 18.541C18.1185 18.5089 18.0807 18.4837 18.039 18.467C17.9926 18.4469 17.9426 18.4365 17.892 18.4365C17.8414 18.4365 17.7914 18.4469 17.745 18.467C17.7277 18.474 17.7083 18.474 17.691 18.467C17.6735 18.4607 17.6591 18.4478 17.651 18.431C17.6475 18.4226 17.6457 18.4136 17.6457 18.4045C17.6457 18.3954 17.6475 18.3864 17.651 18.378C17.6543 18.3694 17.6593 18.3615 17.6656 18.3548C17.672 18.3481 17.6796 18.3427 17.688 18.339C17.7527 18.3108 17.8225 18.2963 17.893 18.2963C17.9635 18.2963 18.0333 18.3108 18.098 18.339C18.1579 18.3632 18.212 18.3997 18.257 18.446C18.3014 18.4923 18.3355 18.5476 18.357 18.608C18.3926 18.7217 18.3836 18.8447 18.332 18.952C18.2799 19.0601 18.1893 19.145 18.078 19.19C18.0692 19.1939 18.0596 19.196 18.05 19.196L18.047 19.195Z" fill="#C2000B"/>
<path d="M20.345 17.431C20.5014 17.4283 20.6535 17.3793 20.7822 17.2904C20.911 17.2015 21.0106 17.0766 21.0685 16.9313C21.1265 16.786 21.1402 16.6268 21.108 16.4737C21.0758 16.3206 20.9991 16.1805 20.8875 16.0708C20.7759 15.9612 20.6345 15.8869 20.4808 15.8574C20.3272 15.8279 20.1683 15.8444 20.024 15.9049C19.8797 15.9654 19.7565 16.0671 19.6699 16.1974C19.5833 16.3276 19.537 16.4806 19.537 16.637C19.5378 16.7422 19.5593 16.8463 19.6004 16.9432C19.6414 17.0401 19.7012 17.1279 19.7763 17.2017C19.8513 17.2754 19.9402 17.3336 20.0378 17.373C20.1354 17.4123 20.2398 17.4321 20.345 17.431V17.431Z" fill="#F664AD"/>
<path d="M14.354 17.568C14.5104 17.5653 14.6625 17.5164 14.7912 17.4274C14.92 17.3385 15.0195 17.2136 15.0775 17.0683C15.1355 16.923 15.1492 16.7638 15.117 16.6107C15.0848 16.4576 15.0081 16.3175 14.8965 16.2078C14.7849 16.0982 14.6434 16.0239 14.4898 15.9944C14.3362 15.9649 14.1773 15.9814 14.033 16.0419C13.8887 16.1024 13.7655 16.2041 13.6789 16.3344C13.5923 16.4646 13.546 16.6176 13.546 16.774C13.5468 16.8792 13.5683 16.9833 13.6094 17.0802C13.6504 17.1771 13.7102 17.2649 13.7853 17.3387C13.8603 17.4124 13.9492 17.4706 14.0468 17.51C14.1444 17.5494 14.2488 17.5691 14.354 17.568V17.568Z" fill="#F664AD"/>
<path d="M22.325 15.373C22.3627 15.1432 22.4752 14.9323 22.645 14.773C22.8156 14.6134 23.0329 14.5128 23.265 14.486C23.4832 14.4923 23.6936 14.5688 23.865 14.704C24.0342 14.8374 24.155 15.0225 24.209 15.231C24.29 15.524 24.164 15.784 23.909 16.305C23.637 16.866 23.37 17.417 22.909 17.465C22.7705 17.4756 22.6318 17.4469 22.509 17.382L22.325 15.373Z" fill="#F990C0"/>
<path d="M12.655 15.331C12.6173 15.1012 12.5048 14.8903 12.335 14.731C12.1644 14.5714 11.9471 14.4708 11.715 14.444C11.5009 14.4626 11.297 14.5439 11.1289 14.6779C10.9608 14.8118 10.8359 14.9924 10.77 15.197C10.388 16.173 11.455 17.59 12.139 17.514C12.264 17.4956 12.3797 17.4374 12.469 17.348L12.655 15.331Z" fill="#F87BAD"/>
<path d="M12.409 13.573C12.7494 12.5678 13.4604 11.7302 14.397 11.231C14.9789 10.9369 15.623 10.7871 16.275 10.794C16.8014 11.4864 17.472 12.0561 18.2404 12.4636C19.0087 12.8711 19.8565 13.1067 20.725 13.154C21.4231 13.1517 22.1131 13.0054 22.752 12.724C22.9083 12.2737 22.934 11.7883 22.826 11.324C22.526 10.117 21.279 9.52401 20.368 9.10101C18.954 8.45101 16.31 7.23201 14.073 8.56201C12.502 9.49601 11.273 11.606 11.873 12.919C11.9958 13.1757 12.1782 13.3992 12.405 13.571L12.409 13.573Z" fill="#34014B"/>
<path d="M11.605 11.088C11.2125 10.5709 10.9469 9.9689 10.8297 9.3304C10.7124 8.6919 10.7468 8.03479 10.93 7.41201C11.3014 6.46547 12.0286 5.70197 12.956 5.28501C14.815 4.40201 17.35 5.02601 19.37 6.82701" stroke="#34024A" stroke-width="0.183" stroke-linecap="round" stroke-linejoin="round"/>
<path d="M18.688 12.522C19.0424 12.8881 19.4724 13.1724 19.948 13.355C20.8728 13.6803 21.8869 13.6414 22.784 13.246" stroke="#34024A" stroke-width="0.183" stroke-linecap="round" stroke-linejoin="round"/>
<path d="M34.019 17.508C34.0237 21.1223 32.836 24.6373 30.64 27.508C30.4013 27.8193 30.1523 28.1223 29.893 28.417C28.3445 30.1755 26.4393 31.5841 24.3041 32.549C22.1689 33.5139 19.8526 34.0129 17.5095 34.0129C15.1664 34.0129 12.8501 33.5139 10.7149 32.549C8.57969 31.5841 6.67446 30.1755 5.126 28.417C4.955 28.225 4.791 28.027 4.626 27.827C2.97572 25.7684 1.84288 23.3442 1.32241 20.7577C0.801934 18.1711 0.908983 15.4974 1.63459 12.9608C2.36019 10.4241 3.68322 8.09825 5.49279 6.17817C7.30237 4.2581 9.54579 2.7997 12.0351 1.92519C14.5244 1.05068 17.187 0.785537 19.7998 1.15197C22.4127 1.5184 24.8996 2.50574 27.0523 4.03125C29.205 5.55676 30.9607 7.576 32.1724 9.91978C33.384 12.2636 34.0162 14.8636 34.016 17.502L34.019 17.508Z" fill="#E6CBE4"/>
<path d="M30.638 27.514C30.3993 27.8253 30.1507 28.1283 29.892 28.423C28.3435 30.1815 26.4383 31.5901 24.3031 32.555C22.1679 33.5199 19.8516 34.0189 17.5085 34.0189C15.1654 34.0189 12.8491 33.5199 10.7139 32.555C8.57869 31.5901 6.67345 30.1815 5.125 28.423C4.954 28.231 4.79 28.033 4.625 27.833C7.01025 25.683 9.93349 24.2195 13.084 23.598C13.273 23.558 13.459 23.52 13.649 23.484C13.805 23.454 13.959 23.427 14.115 23.402C14.1414 23.3963 14.1681 23.3919 14.195 23.389C14.275 23.374 14.357 23.363 14.437 23.351C14.537 23.334 14.637 23.319 14.745 23.307C14.8 23.299 14.857 23.29 14.913 23.286C14.969 23.282 15.05 23.267 15.12 23.259C15.19 23.251 15.24 23.246 15.299 23.238L15.48 23.219H15.493C15.636 23.204 15.78 23.19 15.925 23.179C15.9453 23.18 15.9657 23.18 15.986 23.179H16.003L16.083 23.173C16.239 23.163 16.395 23.152 16.553 23.143L16.684 23.137C16.798 23.131 16.912 23.127 17.028 23.122C17.081 23.122 17.136 23.122 17.19 23.122C17.209 23.122 17.23 23.122 17.249 23.122C17.433 23.122 17.616 23.115 17.801 23.115C17.986 23.115 18.16 23.115 18.339 23.122C18.364 23.122 18.387 23.122 18.413 23.122C18.439 23.122 18.487 23.122 18.522 23.122C18.674 23.122 18.828 23.132 18.979 23.141C19.165 23.152 19.35 23.162 19.534 23.177C19.634 23.186 19.734 23.194 19.834 23.204C19.889 23.204 19.944 23.212 19.999 23.219C20.144 23.232 20.288 23.248 20.433 23.265C20.467 23.265 20.5 23.271 20.533 23.275L20.643 23.288L20.867 23.315C20.96 23.328 21.05 23.341 21.143 23.355L21.461 23.405C21.4733 23.4049 21.4854 23.407 21.497 23.411C21.569 23.422 21.64 23.432 21.712 23.447C21.784 23.462 21.864 23.472 21.938 23.487C21.982 23.496 22.028 23.504 22.073 23.514C22.221 23.541 22.364 23.571 22.509 23.603C25.5069 24.1949 28.3046 25.5409 30.638 27.514Z" fill="#4B1A88"/>
<path d="M22.532 23.599C21.974 25.124 20.073 26.247 17.812 26.247C15.551 26.247 13.65 25.124 13.09 23.599C16.2026 22.9349 19.4204 22.9349 22.533 23.599H22.532Z" fill="#FA734A"/>
<path d="M20.214 25.786C19.4518 26.0949 18.6364 26.2515 17.814 26.247C15.553 26.247 13.652 25.124 13.091 23.599C13.279 23.5583 13.4673 23.52 13.656 23.484C14.248 24.971 16.123 26.057 18.347 26.057C18.98 26.0594 19.6098 25.9681 20.216 25.786H20.214Z" fill="#FB876B"/>
<path d="M20.657 20.035H14.748V24.371H20.657V20.035Z" fill="#FA734A"/>
<path d="M20.657 19.807C20.653 20.185 20.649 20.5633 20.645 20.942C20.2009 21.4292 19.6588 21.8169 19.0541 22.0795C18.4495 22.3422 17.7962 22.4739 17.137 22.466C16.2843 22.4231 15.4629 22.1314 14.774 21.627V19.807H20.657Z" fill="#F05536"/>
<path d="M25.72 7.17801C25.9316 7.67598 26.0375 8.21247 26.0309 8.7535C26.0244 9.29452 25.9056 9.82829 25.682 10.321C25.286 11.132 24.6437 11.797 23.847 12.221C24.1492 12.9172 24.29 13.6727 24.259 14.431C24.1961 15.184 23.9848 15.917 23.6373 16.5879C23.2897 17.2588 22.8128 17.8543 22.234 18.34C21.6263 18.303 21.0172 18.3835 20.44 18.577C19.431 18.925 19.254 19.46 18.16 19.777C17.561 19.9517 16.9399 20.0386 16.316 20.035C16.0374 20.0252 15.7597 19.9965 15.485 19.949C14.8542 19.8893 14.242 19.7029 13.685 19.401C13.1072 19.009 12.6981 18.4139 12.539 17.734C12.3339 17.5793 12.1404 17.4098 11.96 17.227C11.3776 16.5595 10.9351 15.7818 10.6589 14.9401C10.3827 14.0984 10.2783 13.2098 10.352 12.327C10.2134 10.8146 10.5986 9.30042 11.443 8.03801C12.893 6.12401 15.303 5.68101 16.593 5.44301C19.7444 4.95094 22.969 5.56392 25.72 7.17801V7.17801Z" fill="#15022A"/>
<path d="M17.683 21.662C16.2868 21.662 14.9478 21.1074 13.9604 20.1203C12.9731 19.1331 12.4183 17.7942 12.418 16.398V12.298C12.418 11.4369 12.7601 10.611 13.369 10.002C13.978 9.3931 14.8038 9.05101 15.665 9.05101H18.517C19.6912 9.05101 20.8173 9.51739 21.6477 10.3476C22.4781 11.1778 22.9447 12.3038 22.945 13.478V16.403C22.9434 17.7978 22.3884 19.135 21.4019 20.121C20.4153 21.107 19.0778 21.6612 17.683 21.662Z" fill="#FA734A"/>
<path d="M23.009 13.407V16.331C23.0093 17.6253 22.5329 18.8743 21.6707 19.8396C20.8086 20.8048 19.6211 21.4187 18.335 21.564C19.483 21.2863 20.5043 20.6306 21.2347 19.7023C21.9651 18.7741 22.3621 17.6272 22.362 16.446V13.521C22.3604 12.3472 21.8929 11.2221 21.0623 10.3928C20.2317 9.56343 19.1058 9.09774 17.932 9.09801H15.08C14.999 9.09801 14.919 9.09801 14.839 9.10801C15.1277 9.02471 15.4266 8.9823 15.727 8.98201H18.58C19.1616 8.98188 19.7376 9.09636 20.2749 9.3189C20.8123 9.54144 21.3005 9.86769 21.7117 10.279C22.1229 10.6903 22.4491 11.1786 22.6715 11.716C22.8939 12.2534 23.0083 12.8294 23.008 13.411L23.009 13.407Z" fill="#FB876B"/>
<path d="M23.007 14.05C21.924 12.214 20.878 11.703 20.118 11.578C18.841 11.369 18 12.19 16.466 11.878C15.6805 11.7025 14.958 11.3151 14.377 10.758C14.0827 10.9608 13.814 11.1985 13.577 11.466C12.8304 12.3596 12.4184 13.4855 12.412 14.65C11.9776 13.9726 11.8002 13.1619 11.912 12.365C12.0535 11.9041 12.2204 11.4514 12.412 11.009C12.6374 10.2042 12.6374 9.35286 12.412 8.548H22.654C23.1072 9.76766 23.3092 11.0663 23.248 12.366C23.2188 12.9334 23.1385 13.497 23.008 14.05H23.007Z" fill="#15022A"/>
<path d="M14.99 14.585C14.9671 14.5844 14.9449 14.5772 14.926 14.5643C14.9071 14.5514 14.8923 14.5332 14.8834 14.5121C14.8746 14.491 14.872 14.4678 14.876 14.4452C14.88 14.4227 14.8904 14.4018 14.906 14.385C15.0638 14.2272 15.2621 14.1161 15.479 14.064C15.7406 14.0031 16.015 14.0298 16.26 14.14C16.2888 14.1533 16.3111 14.1774 16.3221 14.2071C16.3331 14.2369 16.3318 14.2697 16.3185 14.2985C16.3052 14.3273 16.2811 14.3496 16.2514 14.3606C16.2216 14.3716 16.1888 14.3703 16.16 14.357C15.963 14.2686 15.7424 14.2472 15.532 14.296C15.3576 14.338 15.1981 14.4273 15.071 14.554C15.06 14.5651 15.0469 14.5739 15.0325 14.5799C15.0181 14.5859 15.0026 14.589 14.987 14.589L14.99 14.585Z" fill="#15022A"/>
<path d="M15.611 15.003L15.524 15.039C15.4442 15.0727 15.3811 15.1368 15.3485 15.217C15.3159 15.2973 15.3164 15.3872 15.35 15.467L15.383 15.546C15.4167 15.6258 15.4808 15.6889 15.561 15.7215C15.6413 15.7542 15.7312 15.7536 15.811 15.72L15.898 15.684C15.9778 15.6503 16.0409 15.5862 16.0735 15.506C16.1061 15.4257 16.1056 15.3358 16.072 15.256L16.039 15.177C16.0053 15.0972 15.9412 15.0341 15.861 15.0015C15.7807 14.9689 15.6908 14.9694 15.611 15.003V15.003Z" fill="#190C1D"/>
<path d="M15.883 15.374C15.8768 15.3741 15.8708 15.3722 15.8657 15.3686C15.8607 15.365 15.8569 15.3599 15.855 15.354C15.844 15.3251 15.8265 15.2991 15.8037 15.2781C15.781 15.2571 15.7537 15.2417 15.724 15.233C15.6991 15.228 15.6734 15.2281 15.6484 15.2332C15.6235 15.2384 15.5999 15.2485 15.579 15.263L15.568 15.269H15.556H15.544C15.5405 15.2669 15.5374 15.264 15.535 15.2607C15.5326 15.2573 15.531 15.2535 15.5301 15.2495C15.5293 15.2454 15.5293 15.2413 15.5301 15.2372C15.531 15.2332 15.5326 15.2294 15.535 15.226C15.5374 15.2228 15.5405 15.22 15.544 15.218C15.5717 15.1985 15.6032 15.1849 15.6364 15.1782C15.6696 15.1715 15.7039 15.1717 15.737 15.179C15.7766 15.1898 15.813 15.21 15.8431 15.2378C15.8732 15.2657 15.8962 15.3004 15.91 15.339C15.912 15.3446 15.9122 15.3507 15.9105 15.3564C15.9089 15.3621 15.9056 15.3672 15.901 15.371L15.891 15.377L15.883 15.374Z" fill="white"/>
<path d="M19.698 14.584C19.7209 14.5834 19.7431 14.5762 19.762 14.5633C19.7809 14.5504 19.7957 14.5322 19.8046 14.5111C19.8134 14.49 19.816 14.4668 19.812 14.4442C19.808 14.4217 19.7976 14.4008 19.782 14.384C19.6081 14.2096 19.3849 14.0926 19.1424 14.0488C18.9 14.005 18.65 14.0365 18.426 14.139C18.4118 14.1456 18.3989 14.1549 18.3883 14.1664C18.3776 14.1779 18.3694 14.1914 18.3639 14.2061C18.3585 14.2209 18.356 14.2365 18.3566 14.2522C18.3572 14.2679 18.3609 14.2833 18.3675 14.2975C18.3741 14.3118 18.3834 14.3246 18.3949 14.3352C18.4064 14.3459 18.4199 14.3542 18.4346 14.3596C18.4494 14.365 18.465 14.3675 18.4807 14.3669C18.4964 14.3663 18.5118 14.3626 18.526 14.356C18.7062 14.274 18.9072 14.2492 19.1019 14.2849C19.2966 14.3207 19.4757 14.4153 19.615 14.556C19.6261 14.5672 19.6394 14.5761 19.654 14.5821C19.6686 14.5881 19.6842 14.5912 19.7 14.591L19.698 14.584Z" fill="#15022A"/>
<path d="M18.649 15.177L18.616 15.256C18.5824 15.3358 18.5819 15.4257 18.6145 15.506C18.6471 15.5862 18.7102 15.6503 18.79 15.684L18.877 15.72C18.9568 15.7536 19.0467 15.7542 19.127 15.7215C19.2072 15.6889 19.2713 15.6258 19.305 15.546L19.338 15.467C19.3716 15.3872 19.3721 15.2973 19.3395 15.217C19.3069 15.1368 19.2438 15.0727 19.164 15.039L19.077 15.003C18.9972 14.9694 18.9073 14.9689 18.827 15.0015C18.7468 15.0341 18.6827 15.0972 18.649 15.177V15.177Z" fill="#190C1D"/>
<path d="M18.805 15.374C18.8112 15.3739 18.8171 15.3718 18.822 15.368C18.8272 15.3643 18.831 15.359 18.833 15.353C18.844 15.3241 18.8615 15.2981 18.8843 15.2771C18.907 15.2561 18.9343 15.2407 18.964 15.232C18.989 15.227 19.0146 15.2271 19.0396 15.2322C19.0645 15.2374 19.0881 15.2475 19.109 15.262H19.12H19.132H19.143C19.1462 15.2599 19.1489 15.2572 19.151 15.254C19.1552 15.2474 19.1568 15.2394 19.1555 15.2317C19.1542 15.2239 19.1501 15.2169 19.144 15.212C19.1163 15.1925 19.0848 15.1789 19.0516 15.1722C19.0184 15.1655 18.9841 15.1657 18.951 15.173C18.9115 15.1839 18.8751 15.2041 18.845 15.2319C18.8149 15.2598 18.7919 15.2944 18.778 15.333C18.776 15.3386 18.7759 15.3447 18.7775 15.3504C18.7791 15.3562 18.7824 15.3612 18.787 15.365L18.797 15.371H18.806L18.805 15.374Z" fill="white"/>
<path d="M17.594 17.553C17.5563 17.553 17.5187 17.5487 17.482 17.54C17.3836 17.5157 17.2945 17.4628 17.226 17.388C17.218 17.3794 17.2118 17.3693 17.2076 17.3583C17.2035 17.3473 17.2016 17.3356 17.2021 17.3238C17.2025 17.3121 17.2052 17.3005 17.2101 17.2898C17.215 17.2791 17.2219 17.2695 17.2305 17.2615C17.2391 17.2535 17.2492 17.2473 17.2602 17.2432C17.2712 17.239 17.2829 17.2371 17.2947 17.2376C17.3064 17.238 17.318 17.2407 17.3287 17.2456C17.3394 17.2505 17.349 17.2574 17.357 17.266C17.4018 17.3148 17.4598 17.3495 17.524 17.366C17.5793 17.3792 17.6372 17.3764 17.691 17.358C17.745 17.3377 17.7907 17.3001 17.821 17.251C17.8507 17.202 17.8653 17.1453 17.863 17.088C17.8626 17.0763 17.8645 17.0647 17.8686 17.0537C17.8727 17.0428 17.8789 17.0327 17.8869 17.0242C17.8949 17.0156 17.9045 17.0088 17.9152 17.0039C17.9258 16.9991 17.9373 16.9964 17.949 16.996C17.9722 16.9966 17.9944 17.0057 18.0113 17.0216C18.0282 17.0374 18.0388 17.0589 18.041 17.082C18.0441 17.1745 18.0201 17.2659 17.972 17.345C17.9215 17.4275 17.8447 17.4906 17.754 17.524C17.7025 17.5433 17.648 17.5531 17.593 17.553H17.594Z" fill="#15022A"/>
<path d="M17.792 19.53C17.6861 19.5299 17.5803 19.5242 17.475 19.513C16.7676 19.4292 16.1063 19.1187 15.59 18.628C15.5711 18.6125 15.5556 18.5933 15.5444 18.5716C15.5332 18.5499 15.5266 18.5261 15.525 18.5018C15.5233 18.4774 15.5266 18.453 15.5348 18.4299C15.5429 18.4069 15.5557 18.3858 15.5723 18.3679C15.5889 18.35 15.609 18.3357 15.6314 18.3258C15.6537 18.316 15.6778 18.3108 15.7022 18.3106C15.7267 18.3105 15.7509 18.3153 15.7733 18.3248C15.7958 18.3343 15.8161 18.3483 15.833 18.366C16.2928 18.8044 16.8822 19.0823 17.513 19.158C17.8141 19.1894 18.1183 19.1701 18.413 19.101C18.4366 19.093 18.4617 19.0901 18.4866 19.0923C18.5114 19.0946 18.5355 19.102 18.5574 19.1142C18.5792 19.1263 18.5982 19.1429 18.6132 19.1628C18.6283 19.1827 18.639 19.2056 18.6446 19.2299C18.6503 19.2542 18.6508 19.2794 18.6462 19.304C18.6415 19.3285 18.6318 19.3518 18.6176 19.3723C18.6034 19.3928 18.5851 19.4102 18.5638 19.4232C18.5425 19.4363 18.5187 19.4447 18.494 19.448C18.2646 19.5021 18.0297 19.5299 17.794 19.531L17.792 19.53Z" fill="#C2000B"/>
<path d="M22.394 16.212C22.4274 15.9834 22.5344 15.7718 22.6988 15.6094C22.8631 15.447 23.076 15.3426 23.305 15.312C23.5187 15.3219 23.7233 15.4013 23.8877 15.5381C24.0522 15.6749 24.1674 15.8617 24.216 16.07C24.295 16.37 24.172 16.633 23.928 17.164C23.664 17.736 23.406 18.297 22.962 18.346C22.8262 18.3576 22.6901 18.3283 22.571 18.262L22.394 16.212Z" fill="#FB876B"/>
<path d="M13.029 16.17C12.9956 15.9414 12.8886 15.7298 12.7242 15.5674C12.5599 15.405 12.347 15.3006 12.118 15.27C11.652 15.255 11.324 15.714 11.207 16.028C10.838 17.022 11.869 18.465 12.533 18.388C12.6555 18.3687 12.768 18.3093 12.853 18.219L13.029 16.17Z" fill="#FA734A"/>
<path d="M11.43 8.41301C12.3377 7.11551 13.5673 6.07648 14.998 5.39801C19.827 3.16401 24.783 6.39801 25.168 6.66201C25.252 6.82001 26.517 9.28201 25.224 11.353C24.8354 11.961 24.2927 12.4551 23.651 12.785" stroke="#15022A" stroke-width="0.208" stroke-linecap="round" stroke-linejoin="round"/>
<path d="M14.379 10.758C14.6622 11.1947 15.0377 11.564 15.479 11.84C16.2288 12.2655 17.0948 12.4407 17.951 12.34C18.9123 12.2891 19.8458 11.9994 20.667 11.497" stroke="#15022A" stroke-width="0.208" stroke-linecap="round" stroke-linejoin="round"/>
<path opacity="0.33" d="M7.487 11.844C7.95989 11.8361 8.41991 11.6887 8.80929 11.4202C9.19867 11.1518 9.50005 10.7742 9.67558 10.3351C9.85112 9.89588 9.89297 9.41463 9.7959 8.95174C9.69883 8.48885 9.46715 8.06496 9.12997 7.73331C8.79279 7.40165 8.36513 7.17701 7.9007 7.0876C7.43627 6.99819 6.95577 7.048 6.51956 7.23077C6.08334 7.41353 5.71085 7.72111 5.44886 8.11488C5.18687 8.50864 5.04706 8.97104 5.047 9.44399C5.04948 9.76184 5.11458 10.0761 5.23857 10.3687C5.36257 10.6614 5.54302 10.9268 5.76963 11.1497C5.99623 11.3725 6.26454 11.5486 6.55922 11.6677C6.85389 11.7869 7.16916 11.8468 7.487 11.844V11.844Z" fill="#DA9DD5"/>
<path opacity="0.33" d="M29.757 19.21C29.8923 19.2074 30.0239 19.165 30.1352 19.0879C30.2464 19.0108 30.3325 18.9026 30.3824 18.7768C30.4324 18.651 30.4441 18.5132 30.4161 18.3808C30.3881 18.2484 30.3215 18.1272 30.2248 18.0325C30.1282 17.9377 30.0057 17.8736 29.8727 17.8483C29.7397 17.8229 29.6022 17.8374 29.4775 17.8899C29.3527 17.9424 29.2463 18.0306 29.1714 18.1434C29.0966 18.2562 29.0568 18.3886 29.057 18.524C29.0579 18.615 29.0767 18.7049 29.1124 18.7887C29.1481 18.8724 29.1999 18.9483 29.2649 19.012C29.3299 19.0757 29.4068 19.126 29.4913 19.1599C29.5757 19.1939 29.666 19.2109 29.757 19.21Z" fill="#DA9DD5"/>
<path d="M27.262 13.957C27.3605 13.9552 27.4563 13.9244 27.5373 13.8684C27.6183 13.8124 27.681 13.7337 27.7175 13.6422C27.7539 13.5507 27.7626 13.4504 27.7423 13.3541C27.722 13.2577 27.6737 13.1694 27.6034 13.1004C27.5331 13.0314 27.444 12.9846 27.3473 12.966C27.2505 12.9475 27.1505 12.9579 27.0596 12.996C26.9688 13.0341 26.8912 13.0982 26.8367 13.1802C26.7821 13.2622 26.753 13.3585 26.753 13.457C26.753 13.5234 26.7662 13.5892 26.7919 13.6504C26.8176 13.7117 26.8552 13.7672 26.9026 13.8138C26.95 13.8603 27.0062 13.897 27.0679 13.9216C27.1296 13.9461 27.1956 13.9582 27.262 13.957Z" fill="#DA9DD5"/>
<path d="M6.686 21.036C6.76065 21.0346 6.83322 21.0112 6.89462 20.9687C6.95602 20.9263 7.00351 20.8666 7.03112 20.7972C7.05874 20.7279 7.06525 20.6519 7.04985 20.5789C7.03444 20.5058 6.99781 20.4389 6.94453 20.3866C6.89126 20.3343 6.82373 20.2989 6.75041 20.2848C6.67708 20.2708 6.60124 20.2787 6.5324 20.3076C6.46355 20.3364 6.40477 20.385 6.36342 20.4472C6.32208 20.5093 6.30002 20.5823 6.3 20.657C6.30039 20.7072 6.3107 20.7569 6.33032 20.8032C6.34994 20.8494 6.3785 20.8914 6.41436 20.9266C6.45022 20.9618 6.49267 20.9896 6.53928 21.0084C6.58589 21.0271 6.63575 21.0365 6.686 21.036V21.036Z" fill="#DA9DD5"/>
<path opacity="0.41" d="M24.619 20.999C24.7951 20.9958 24.9663 20.9407 25.1112 20.8406C25.2561 20.7405 25.3682 20.5998 25.4335 20.4362C25.4987 20.2726 25.5141 20.0933 25.4778 19.921C25.4415 19.7486 25.3552 19.5908 25.2295 19.4674C25.1039 19.344 24.9446 19.2604 24.7716 19.2272C24.5986 19.194 24.4197 19.2126 24.2573 19.2807C24.0949 19.3488 23.9562 19.4634 23.8586 19.61C23.7611 19.7567 23.709 19.9289 23.709 20.105C23.7098 20.2235 23.734 20.3407 23.7802 20.4499C23.8264 20.559 23.8937 20.658 23.9783 20.7411C24.0628 20.8241 24.1629 20.8897 24.2729 20.9339C24.3829 20.9782 24.5005 21.0003 24.619 20.999V20.999Z" stroke="#DA9DD5" stroke-width="0.367" stroke-miterlimit="10"/>
</svg>
