<svg xmlns="http://www.w3.org/2000/svg" width="23.942" height="23.942" viewBox="0 0 23.942 23.942">
  <g id="Group_2787" data-name="Group 2787" transform="translate(-139.243 -385.243)">
    <path id="Path_53944" data-name="Path 53944" d="M10.443,0A10.443,10.443,0,1,1,0,10.443,10.443,10.443,0,0,1,10.443,0Z" transform="translate(140.771 386.771)" fill="#f50034"/>
    <g id="Group_2786" data-name="Group 2786" transform="translate(139.243 385.243)">
      <path id="Path_53942" data-name="Path 53942" d="M11.971,0A11.971,11.971,0,1,0,23.942,11.971,11.984,11.984,0,0,0,11.971,0Zm0,22.088A10.117,10.117,0,1,1,22.088,11.971,10.128,10.128,0,0,1,11.971,22.088Z" fill="#f50034"/>
      <path id="Path_53943" data-name="Path 53943" d="M147.222,139.874h-3.709v-3.709a.927.927,0,1,0-1.855,0v3.709h-3.709a.927.927,0,1,0,0,1.855h3.709v3.709a.927.927,0,1,0,1.855,0v-3.709h3.709a.927.927,0,1,0,0-1.855Z" transform="translate(-130.615 -128.914)" fill="#fff"/>
    </g>
  </g>
</svg>
