<svg xmlns="http://www.w3.org/2000/svg" width="17.5" height="17.5" viewBox="0 0 17.5 17.5">
  <path id="ic_bug_report_24px" d="M21.5,7.861H18.427a6.154,6.154,0,0,0-1.991-1.906l1.783-1.585L16.677,3,14.3,5.11a7.425,7.425,0,0,0-1.553-.165,7.243,7.243,0,0,0-1.542.165L8.823,3,7.281,4.371,9.053,5.956a6.228,6.228,0,0,0-1.98,1.906H4V9.806H6.286a5.757,5.757,0,0,0-.1.972v.972H4v1.944H6.188v.972a5.757,5.757,0,0,0,.1.972H4v1.944H7.073A6.742,6.742,0,0,0,12.75,20.5a6.742,6.742,0,0,0,5.677-2.917H21.5V15.639H19.214a5.757,5.757,0,0,0,.1-.972v-.972H21.5V11.75H19.313v-.972a5.757,5.757,0,0,0-.1-.972H21.5Zm-6.562,7.778H10.563V13.694h4.375Zm0-3.889H10.563V9.806h4.375Z" transform="translate(-4 -3)" fill="rgba(112,112,112,0.8)"/>
</svg>
