<svg xmlns="http://www.w3.org/2000/svg" width="18.066" height="17.981" viewBox="0 0 18.066 17.981">
  <path id="ic_access_alarm_24px" d="M19.5,5.214,15.475,1.86,14.346,3.189l4.025,3.354ZM7.145,3.189,6.025,1.86,2,5.205,3.129,6.535,7.145,3.189ZM11.187,7.2H9.875v5.214l4.156,2.476.656-1.069-3.5-2.059ZM10.75,3.719a7.82,7.82,0,1,0,7.875,7.82A7.848,7.848,0,0,0,10.75,3.719Zm0,13.9a6.083,6.083,0,1,1,6.125-6.082A6.1,6.1,0,0,1,10.75,17.622Z" transform="translate(-1.717 -1.579)" fill="#707070" stroke="#707070" stroke-width="0.4"/>
</svg>
