<svg xmlns="http://www.w3.org/2000/svg" xmlns:xlink="http://www.w3.org/1999/xlink" width="16.667" height="17.5" viewBox="0 0 16.667 17.5">
  <defs>
    <clipPath id="clip-path">
      <rect id="Rectangle_9203" data-name="Rectangle 9203" width="16.667" height="17.5" fill="#e03" stroke="#707070" stroke-width="1"/>
    </clipPath>
  </defs>
  <g id="Mask_Group_885" data-name="Mask Group 885" clip-path="url(#clip-path)">
    <g id="event_available" data-name="event available" transform="translate(0.96 0.097)">
      <g id="Layer_2" data-name="Layer 2">
        <g id="Layer_1" data-name="Layer 1">
          <g id="event_available-2" data-name="event available">
            <path id="Path_54086" data-name="Path 54086" d="M13.093,3.455a.72.72,0,0,1-.72-.72V.72a.72.72,0,1,1,1.44,0V2.735A.72.72,0,0,1,13.093,3.455Z" transform="translate(-1.863)" fill="#e03"/>
            <path id="Path_54087" data-name="Path 54087" d="M4.618,3.455a.72.72,0,0,1-.72-.72V.72a.72.72,0,1,1,1.44,0V2.735a.72.72,0,0,1-.72.72Z" transform="translate(-0.587)" fill="#e03"/>
            <path id="Path_54088" data-name="Path 54088" d="M12.237,17.346H3.023A3.026,3.026,0,0,1,0,14.322V5.4A3.026,3.026,0,0,1,3.023,2.373h9.214A3.026,3.026,0,0,1,15.261,5.4v8.926A3.026,3.026,0,0,1,12.237,17.346ZM3.023,3.813A1.587,1.587,0,0,0,1.44,5.4v8.926a1.587,1.587,0,0,0,1.584,1.584h9.214a1.587,1.587,0,0,0,1.584-1.584V5.4a1.587,1.587,0,0,0-1.584-1.584Z" transform="translate(0 -0.357)" fill="#e03"/>
            <path id="Path_54089" data-name="Path 54089" d="M7.416,15.639a.72.72,0,0,1-.51-.213L4.617,13.14A.721.721,0,1,1,5.636,12.12l1.779,1.791,3.536-3.539a.72.72,0,1,1,1.019,1.017L7.922,15.42a.708.708,0,0,1-.507.219Z" transform="translate(-0.663 -1.53)" fill="#e03"/>
            <path id="Path_54090" data-name="Path 54090" d="M14.541,8.219H.72a.72.72,0,0,1,0-1.44H14.541a.72.72,0,0,1,0,1.44Z" transform="translate(0 -1.021)" fill="#e03"/>
          </g>
        </g>
      </g>
    </g>
  </g>
</svg>
