<svg xmlns="http://www.w3.org/2000/svg" xmlns:xlink="http://www.w3.org/1999/xlink" width="17.5" height="17.5" viewBox="0 0 17.5 17.5">
  <defs>
    <clipPath id="clip-path">
      <rect id="Rectangle_9202" data-name="Rectangle 9202" width="17.5" height="17.5" transform="translate(339 68)" fill="#fff" stroke="#707070" stroke-width="1"/>
    </clipPath>
  </defs>
  <g id="Mask_Group_884" data-name="Mask Group 884" transform="translate(-339 -68)" clip-path="url(#clip-path)">
    <g id="group" transform="translate(339 69.836)">
      <g id="Layer_2" data-name="Layer 2" transform="translate(0 0)">
        <g id="Layer_1" data-name="Layer 1">
          <g id="group-2" data-name="group">
            <path id="Path_54082" data-name="Path 54082" d="M9.84,14.851h-8.1a1.737,1.737,0,0,1-1.368-.662,1.683,1.683,0,0,1-.324-1.437,5.9,5.9,0,0,1,11.488,0,1.692,1.692,0,0,1-.324,1.44,1.743,1.743,0,0,1-1.368.659ZM5.788,9.695a4.39,4.39,0,0,0-4.3,3.4.2.2,0,0,0,.042.175.264.264,0,0,0,.2.1h8.1a.264.264,0,0,0,.2-.1.2.2,0,0,0,.042-.175,4.39,4.39,0,0,0-4.292-3.4Z" transform="translate(0 -1.024)" fill="#707070"/>
            <path id="Path_54083" data-name="Path 54083" d="M6.156,6.426A3.215,3.215,0,1,1,9.368,3.211,3.215,3.215,0,0,1,6.156,6.426Zm0-4.943A1.731,1.731,0,1,0,7.883,3.211,1.731,1.731,0,0,0,6.156,1.484Z" transform="translate(-0.367 0.003)" fill="#707070"/>
            <path id="Path_54084" data-name="Path 54084" d="M17.13,14.98H10.16a.742.742,0,1,1,0-1.484h6.97a.083.083,0,0,0,.065-.03.045.045,0,0,0,0-.036,3.509,3.509,0,0,0-5.714-1.837.742.742,0,1,1-.974-1.119,4.987,4.987,0,0,1,8.131,2.618,1.517,1.517,0,0,1-.3,1.294,1.564,1.564,0,0,1-1.211.594Z" transform="translate(-1.177 -1.153)" fill="#707070"/>
            <path id="Path_54085" data-name="Path 54085" d="M14.022,8.028A2.776,2.776,0,1,1,16.8,5.252,2.776,2.776,0,0,1,14.022,8.028Zm0-4.067a1.285,1.285,0,1,1,0,.012Z" transform="translate(-1.405 -0.307)" fill="#707070"/>
          </g>
        </g>
      </g>
    </g>
  </g>
</svg>
