<svg width="375" height="132" viewBox="0 0 375 132" fill="none" xmlns="http://www.w3.org/2000/svg">
<path d="M0 0H375V116C375 120.243 373.314 124.313 370.314 127.314C367.313 130.314 363.243 132 359 132H16C11.7565 132 7.68687 130.314 4.68629 127.314C1.68571 124.313 0 120.243 0 116V0Z" fill="#EE0033"/>
<path d="M117.035 95.7419H114.835C114.627 95.7419 114.421 95.7829 114.229 95.8625C114.037 95.9421 113.862 96.0588 113.715 96.2059C113.568 96.353 113.451 96.5276 113.372 96.7198C113.292 96.912 113.251 97.1179 113.251 97.3259V113.613C113.251 114.033 113.417 114.437 113.714 114.734C114.011 115.032 114.415 115.199 114.835 115.2H117.035C117.455 115.199 117.858 115.032 118.155 114.735C118.452 114.437 118.619 114.034 118.619 113.614V97.3269C118.619 97.1189 118.578 96.9129 118.498 96.7208C118.419 96.5286 118.302 96.354 118.155 96.2069C118.008 96.0598 117.833 95.9431 117.641 95.8635C117.449 95.7839 117.243 95.7429 117.035 95.7429" fill="white"/>
<path d="M109.123 95.7419C108.466 95.7466 107.823 95.9393 107.272 96.2972C106.721 96.6552 106.283 97.1634 106.011 97.7619L100.17 110.17C100.031 110.462 99.7581 110.941 99.5271 110.941C99.2961 110.941 99.0271 110.462 98.8841 110.17L93.0081 97.7619C92.7365 97.1632 92.299 96.6547 91.7476 96.2968C91.1961 95.9388 90.5536 95.7463 89.8961 95.7419H86.4961L95.7661 113.693C96.6851 115.455 98.5661 115.418 99.5291 115.418C100.861 115.418 102.42 115.346 103.247 113.693L112.516 95.7419H109.123Z" fill="white"/>
<path d="M211.54 92.7598C211.54 92.5517 211.499 92.3456 211.419 92.1534C211.339 91.9612 211.222 91.7866 211.075 91.6396C210.928 91.4926 210.753 91.3761 210.561 91.2967C210.368 91.2172 210.162 91.1765 209.954 91.1768H207.754C207.546 91.1766 207.34 91.2175 207.147 91.297C206.955 91.3766 206.78 91.4932 206.633 91.6403C206.486 91.7874 206.369 91.962 206.289 92.1543C206.209 92.3465 206.168 92.5526 206.168 92.7608V108.848C206.086 109.812 206.269 110.78 206.698 111.647C207.127 112.515 207.785 113.248 208.601 113.768C210.114 114.758 211.858 115.2 215.118 115.2H216.882C217.09 115.2 217.296 115.158 217.489 115.079C217.681 114.999 217.855 114.882 218.003 114.735C218.15 114.588 218.266 114.413 218.346 114.22C218.425 114.028 218.466 113.822 218.466 113.614V111.894H217.14C215.698 111.985 214.258 111.694 212.965 111.051C211.403 110.022 211.541 108.187 211.541 106.865L211.54 92.7598Z" fill="white"/>
<path d="M177.17 111.894C175.728 111.985 174.287 111.694 172.993 111.049C171.433 110.022 171.57 108.185 171.57 106.865V99.0458H176.777C177.197 99.0458 177.601 98.879 177.898 98.582C178.195 98.285 178.363 97.8821 178.363 97.4618V95.7418H171.569V92.7598C171.569 92.5517 171.528 92.3457 171.449 92.1534C171.369 91.9612 171.253 91.7865 171.106 91.6394C170.958 91.4923 170.784 91.3756 170.592 91.2961C170.399 91.2165 170.193 91.1757 169.985 91.1758H167.785C167.365 91.1763 166.963 91.3434 166.666 91.6404C166.37 91.9374 166.203 92.34 166.203 92.7598V95.7428H155.002V92.7598C155.002 92.5517 154.961 92.3457 154.882 92.1534C154.802 91.9612 154.686 91.7865 154.539 91.6394C154.391 91.4923 154.217 91.3756 154.025 91.2961C153.832 91.2165 153.626 91.1757 153.418 91.1758H151.218C150.798 91.1758 150.395 91.3427 150.098 91.6397C149.801 91.9368 149.634 92.3397 149.634 92.7598V95.7428H146.284V97.4628C146.284 97.6709 146.325 97.877 146.405 98.0693C146.485 98.2615 146.602 98.4362 146.749 98.5833C146.896 98.7303 147.071 98.847 147.264 98.9265C147.456 99.006 147.662 99.0469 147.87 99.0468H149.635V108.847C149.552 109.811 149.735 110.779 150.163 111.646C150.592 112.514 151.25 113.247 152.066 113.767C153.582 114.759 155.323 115.199 158.583 115.199H160.348C160.556 115.199 160.762 115.158 160.955 115.079C161.147 114.999 161.322 114.882 161.469 114.735C161.617 114.588 161.733 114.414 161.813 114.221C161.893 114.029 161.934 113.823 161.934 113.615V111.895H160.602C159.16 111.986 157.72 111.694 156.427 111.05C154.865 110.023 155.002 108.186 155.002 106.866V99.0458H166.202V108.846C166.118 109.81 166.301 110.778 166.729 111.646C167.158 112.514 167.816 113.247 168.633 113.766C170.149 114.758 171.89 115.198 175.148 115.198H176.914C177.334 115.198 177.737 115.031 178.034 114.734C178.331 114.437 178.498 114.034 178.498 113.614V111.894H177.17Z" fill="white"/>
<path d="M144.313 113.613V111.893H132.426C130.452 111.893 128.203 111.672 127.516 109.58C127.305 108.702 127.198 107.803 127.197 106.9H141.334C142.264 106.964 143.188 106.705 143.949 106.166C144.359 105.802 144.677 105.346 144.876 104.835C145.076 104.324 145.151 103.773 145.097 103.228C145.097 100.771 144.497 98.3458 141.656 96.9138C139.407 95.7758 136.471 95.6658 133.624 95.6658C131.33 95.6658 127.202 95.6658 124.539 97.5028C121.876 99.3398 121.648 102.018 121.648 105.652C121.648 108.222 121.785 110.9 123.394 112.737C125.413 115.014 128.349 115.194 130.828 115.194H142.733C142.941 115.194 143.147 115.153 143.339 115.073C143.531 114.993 143.705 114.877 143.852 114.729C143.999 114.582 144.115 114.408 144.195 114.216C144.274 114.024 144.315 113.818 144.315 113.61L144.313 113.613ZM139.545 102.454C139.545 102.969 139.408 103.592 138.352 103.592H130.714C128.771 103.592 127.2 104.48 127.2 105.574V103.592C127.244 102.307 127.2 101.243 128.3 100.251C129.769 98.9308 131.971 98.9658 133.4 98.9658C134.981 98.8482 136.564 99.1526 137.989 99.8478C138.448 100.114 138.832 100.494 139.104 100.949C139.376 101.405 139.527 101.923 139.544 102.454" fill="white"/>
<path d="M202.362 113.613V111.893H190.478C188.506 111.893 186.257 111.672 185.568 109.58C185.357 108.702 185.25 107.803 185.249 106.9H199.382C200.313 106.964 201.236 106.705 201.997 106.166C202.407 105.802 202.725 105.346 202.925 104.835C203.124 104.324 203.2 103.773 203.145 103.228C203.145 100.771 202.545 98.3458 199.704 96.9138C197.455 95.7758 194.519 95.6658 191.672 95.6658C189.378 95.6658 185.25 95.6658 182.589 97.5028C179.928 99.3398 179.698 102.018 179.698 105.652C179.698 108.222 179.833 110.9 181.442 112.737C183.461 115.014 186.397 115.194 188.876 115.194H200.779C201.199 115.194 201.602 115.027 201.899 114.73C202.196 114.433 202.363 114.03 202.363 113.61L202.362 113.613ZM197.592 102.458C197.592 102.973 197.455 103.596 196.399 103.596H188.761C186.82 103.596 185.247 104.484 185.247 105.578V103.596C185.291 102.311 185.247 101.247 186.347 100.255C187.816 98.9348 190.018 98.9698 191.447 98.9698C193.028 98.8522 194.612 99.1566 196.036 99.8518C196.496 100.118 196.881 100.496 197.154 100.952C197.427 101.408 197.579 101.926 197.596 102.457" fill="white"/>
<path d="M117.035 90.2969H114.835C114.627 90.297 114.421 90.3381 114.229 90.4179C114.036 90.4977 113.862 90.6145 113.715 90.7618C113.567 90.9091 113.451 91.0839 113.371 91.2762C113.292 91.4686 113.251 91.6747 113.251 91.8829V95.7419H113.273C113.439 95.1775 113.794 94.6872 114.279 94.3529C114.763 94.0186 115.347 93.8605 115.934 93.9049H117.034C117.454 93.9049 117.857 93.738 118.154 93.4409C118.451 93.1439 118.618 92.741 118.618 92.3209V91.8829C118.618 91.6747 118.577 91.4686 118.498 91.2762C118.418 91.0839 118.302 90.9091 118.154 90.7618C118.007 90.6145 117.833 90.4977 117.64 90.4179C117.448 90.3381 117.242 90.297 117.034 90.2969" fill="white"/>
<path d="M228.236 115.419V113.443H238.399C239.68 113.443 240.322 112.594 240.323 110.897C240.34 110.37 240.204 109.849 239.933 109.397C239.515 108.885 238.941 108.524 238.299 108.37L231.099 105.978C230.151 105.724 229.311 105.168 228.707 104.394C228.172 103.52 227.917 102.503 227.977 101.48C227.906 100.34 228.269 99.2162 228.993 98.3338C229.404 97.9361 229.894 97.6307 230.432 97.4382C230.97 97.2457 231.544 97.1706 232.113 97.2178H241.967V99.1918H232.554C232.27 99.1673 231.984 99.2032 231.715 99.2974C231.445 99.3915 231.199 99.5416 230.992 99.7378C230.617 100.259 230.442 100.898 230.5 101.538C230.493 101.868 230.52 102.199 230.578 102.524C230.659 102.836 230.825 103.119 231.057 103.343C231.381 103.663 231.778 103.9 232.214 104.033L239.078 106.319C240.157 106.621 241.147 107.178 241.964 107.945C242.62 108.783 242.936 109.837 242.848 110.898C242.901 112.057 242.586 113.204 241.948 114.174C241.61 114.603 241.17 114.942 240.669 115.159C240.167 115.377 239.62 115.466 239.075 115.42L228.236 115.419Z" fill="white"/>
<path d="M252.048 115.419H250.408C249.794 115.485 249.172 115.423 248.584 115.235C247.995 115.047 247.452 114.739 246.989 114.329C246.267 113.377 245.92 112.192 246.016 111.001V103.409H243.99V101.638H246.02V97.2207H248.204V101.639H252.049V103.41H248.203V110.87C248.16 111.257 248.197 111.65 248.311 112.023C248.424 112.396 248.613 112.743 248.864 113.041C249.525 113.513 250.333 113.73 251.141 113.652H252.049L252.048 115.419Z" fill="white"/>
<path d="M266.894 108.477C266.894 111.06 266.344 112.889 265.245 113.963C264.146 115.037 262.338 115.574 259.822 115.575C257.31 115.575 255.503 115.038 254.402 113.963C253.301 112.888 252.75 111.06 252.751 108.477C252.751 105.912 253.301 104.105 254.402 103.056C255.503 102.007 257.309 101.482 259.822 101.483C262.335 101.483 264.142 102.007 265.245 103.056C266.348 104.105 266.897 105.912 266.894 108.477ZM255.041 108.477C255.041 110.436 255.401 111.815 256.12 112.613C257.199 113.388 258.495 113.805 259.824 113.805C261.153 113.805 262.449 113.388 263.528 112.613C264.247 111.818 264.606 110.439 264.607 108.477C264.607 106.536 264.252 105.181 263.543 104.41C262.834 103.639 261.594 103.254 259.823 103.254C258.057 103.254 256.818 103.639 256.105 104.41C255.392 105.181 255.037 106.536 255.04 108.477H255.041Z" fill="white"/>
<path d="M269.052 115.419V106.608C268.995 105.93 269.076 105.248 269.29 104.602C269.505 103.957 269.848 103.362 270.3 102.853C271.367 101.966 272.739 101.531 274.122 101.642H275.63V103.408H274.512C274.05 103.361 273.584 103.419 273.148 103.576C272.711 103.734 272.315 103.987 271.99 104.318C271.423 105.148 271.157 106.148 271.236 107.15V115.418L269.052 115.419Z" fill="white"/>
<path d="M288.136 115.418H280.936C279.012 115.418 277.704 114.851 277.012 113.718C276.219 112.129 275.859 110.359 275.97 108.587C275.97 106.02 276.437 104.195 277.37 103.112C278.304 102.028 279.924 101.486 282.232 101.486C283.865 101.386 285.486 101.81 286.86 102.697C287.953 103.504 288.499 104.886 288.498 106.842C288.55 107.489 288.385 108.135 288.028 108.677C287.826 108.889 287.578 109.051 287.303 109.152C287.028 109.253 286.734 109.29 286.442 109.26H278.228C278.222 109.813 278.261 110.366 278.345 110.913C278.427 111.384 278.572 111.842 278.774 112.276C278.974 112.719 279.318 113.082 279.75 113.305C280.264 113.554 280.831 113.674 281.401 113.654H288.135L288.136 115.418ZM278.23 107.49H285.588C286.004 107.49 286.212 107.254 286.212 106.79V106.69C286.212 104.404 284.895 103.26 282.26 103.26C281.708 103.207 281.15 103.263 280.619 103.425C280.088 103.588 279.595 103.853 279.166 104.207C278.447 105.142 278.112 106.316 278.23 107.49Z" fill="white"/>
</svg>
