<svg xmlns="http://www.w3.org/2000/svg" xmlns:xlink="http://www.w3.org/1999/xlink" width="24" height="24" viewBox="0 0 24 24">
  <defs>
    <linearGradient id="linear-gradient" x1="0.869" y1="0.191" x2="0.126" y2="0.815" gradientUnits="objectBoundingBox">
      <stop offset="0" stop-color="#00ede3"/>
      <stop offset="1" stop-color="#00c7bf"/>
    </linearGradient>
  </defs>
  <g id="Group_12550" data-name="Group 12550" transform="translate(-26 -128)">
    <g id="Group_547" data-name="Group 547" transform="translate(13575 5207)">
      <path id="Path_46396" data-name="Path 46396" d="M12,0A12,12,0,1,1,0,12,12,12,0,0,1,12,0Z" transform="translate(-13549 -5079)" fill="url(#linear-gradient)"/>
    </g>
    <g id="brush-1" transform="translate(32 134)">
      <path id="Path_54590" data-name="Path 54590" d="M8.763,13.043H5.472c-2.978,0-4.251-1.273-4.251-4.251V5.5c0-2.978,1.273-4.251,4.251-4.251h1.1a.411.411,0,1,1,0,.823h-1.1c-2.529,0-3.428.9-3.428,3.428V8.792c0,2.529.9,3.428,3.428,3.428H8.763c2.529,0,3.428-.9,3.428-3.428v-1.1a.411.411,0,0,1,.823,0v1.1C13.014,11.77,11.747,13.043,8.763,13.043Z" transform="translate(-1.221 -1.25)" fill="#fff" stroke="#fff" stroke-width="0.4"/>
      <path id="Path_54591" data-name="Path 54591" d="M10.937,8.925a.394.394,0,0,1-.23-.071.4.4,0,0,1-.181-.34,1.184,1.184,0,0,0-.016-.192,1.342,1.342,0,0,0-.389-.773,1.374,1.374,0,0,0-.8-.406.935.935,0,0,0-.181-.005.408.408,0,0,1-.357-.159.428.428,0,0,1-.06-.389,1.552,1.552,0,0,1,.291-.5l.675-.845a15.246,15.246,0,0,1,5.282-3.916,1.026,1.026,0,0,1,1.113.225,1.016,1.016,0,0,1,.23,1.119A15.28,15.28,0,0,1,12.4,7.949l-.861.691a2.055,2.055,0,0,1-.45.258A.5.5,0,0,1,10.937,8.925ZM9.807,6.419a2.3,2.3,0,0,1,.894.549,2.19,2.19,0,0,1,.538.856l.647-.521A14.348,14.348,0,0,0,15.55,2.36a.206.206,0,0,0-.049-.23.2.2,0,0,0-.23-.038,14.379,14.379,0,0,0-4.937,3.664Z" transform="translate(-4.597 -1.252)" fill="#fff" stroke="#fff" stroke-width="0.4"/>
      <path id="Path_54592" data-name="Path 54592" d="M6.6,15.024a1.336,1.336,0,0,1-1.322-1.492L5.4,12.457A2.182,2.182,0,0,1,7.559,10.5a2.842,2.842,0,0,1,.3.005,2.194,2.194,0,0,1,1.294.642,2.106,2.106,0,0,1,.625,1.24,1.975,1.975,0,0,1,.022.307A2.206,2.206,0,0,1,7.845,14.9l-1.086.115A1.489,1.489,0,0,1,6.6,15.024Zm1.042-3.708H7.592a1.38,1.38,0,0,0-1.377,1.229L6.1,13.625a.53.53,0,0,0,.148.428.513.513,0,0,0,.417.148l1.081-.115a1.382,1.382,0,0,0,.817-.389,1.419,1.419,0,0,0,.411-1,1.184,1.184,0,0,0-.016-.192,1.342,1.342,0,0,0-.389-.773,1.374,1.374,0,0,0-.8-.406A.739.739,0,0,0,7.647,11.316Z" transform="translate(-3.05 -5.425)" fill="#fff" stroke="#fff" stroke-width="0.4"/>
      <path id="Path_54593" data-name="Path 54593" d="M13.77,10.342a.414.414,0,0,1-.411-.411,1.67,1.67,0,0,0-1.667-1.667.411.411,0,0,1,0-.823,2.492,2.492,0,0,1,2.49,2.49A.411.411,0,0,1,13.77,10.342Z" transform="translate(-5.762 -4.045)" fill="#fff" stroke="#fff" stroke-width="0.4"/>
    </g>
  </g>
</svg>
