<svg xmlns="http://www.w3.org/2000/svg" width="17.5" height="17.5" viewBox="0 0 17.5 17.5">
  <path id="ic_assignment_24px" d="M18.556,2.75H14.492A2.923,2.923,0,0,0,11.75,1,2.923,2.923,0,0,0,9.008,2.75H4.944A1.86,1.86,0,0,0,3,4.5V16.75A1.86,1.86,0,0,0,4.944,18.5H18.556A1.86,1.86,0,0,0,20.5,16.75V4.5A1.86,1.86,0,0,0,18.556,2.75Zm-6.806,0a.93.93,0,0,1,.972.875.978.978,0,0,1-1.944,0A.93.93,0,0,1,11.75,2.75ZM13.694,15H6.889V13.25h6.806Zm2.917-3.5H6.889V9.75h9.722Zm0-3.5H6.889V6.25h9.722Z" transform="translate(-3 -1)" fill="rgba(112,112,112,0.8)"/>
</svg>
