<svg xmlns="http://www.w3.org/2000/svg" xmlns:xlink="http://www.w3.org/1999/xlink" width="17.5" height="17.5" viewBox="0 0 17.5 17.5">
  <defs>
    <clipPath id="clip-path">
      <rect id="Rectangle_8960" data-name="Rectangle 8960" width="17.5" height="17.5" transform="translate(0.337 -0.411)" fill="#fff" stroke="#f6f6f6" stroke-width="1"/>
    </clipPath>
  </defs>
  <g id="Mask_Group_755" data-name="Mask Group 755" transform="translate(-0.337 0.411)" clip-path="url(#clip-path)">
    <g id="account" transform="translate(1.459 0.039)">
      <g id="Layer_2" data-name="Layer 2" transform="translate(0)">
        <g id="Layer_1" data-name="Layer 1">
          <g id="account-2" data-name="account">
            <path id="Path_53692" data-name="Path 53692" d="M13.035,18.616H2.11a2.165,2.165,0,0,1-1.663-.754,1.821,1.821,0,0,1-.391-1.631,7.641,7.641,0,0,1,7.517-5.573,7.641,7.641,0,0,1,7.517,5.573,1.821,1.821,0,0,1-.394,1.631A2.158,2.158,0,0,1,13.035,18.616ZM7.571,12.1A6.094,6.094,0,0,0,1.54,16.56a.462.462,0,0,0,.1.407.6.6,0,0,0,.468.205H13.035a.594.594,0,0,0,.453-.205.452.452,0,0,0,.1-.407A6.093,6.093,0,0,0,7.571,12.1Z" transform="translate(-0.001 -1.579)" fill="#707070"/>
            <path id="Path_53693" data-name="Path 53693" d="M7.92,7.687a3.978,3.978,0,0,1-4.1-3.843A3.978,3.978,0,0,1,7.92,0a3.978,3.978,0,0,1,4.1,3.843,3.981,3.981,0,0,1-4.1,3.843Zm0-6.243a2.483,2.483,0,0,0-2.56,2.4,2.483,2.483,0,0,0,2.56,2.4,2.483,2.483,0,0,0,2.56-2.4A2.486,2.486,0,0,0,7.92,1.444Z" transform="translate(-0.35)" fill="#707070"/>
          </g>
        </g>
      </g>
    </g>
  </g>
</svg>
