<svg xmlns="http://www.w3.org/2000/svg" width="17.5" height="17.5" viewBox="0 0 17.5 17.5">
  <g id="Group_12533" data-name="Group 12533" transform="translate(-209 -1037)">
    <path id="ic_picture_in_picture_alt_24px" d="M14.9,6.5H7.693V9.16H14.9Zm3.6,12.055V4.925A1.781,1.781,0,0,0,16.909,3H2.591A1.781,1.781,0,0,0,1,4.925V18.556A1.8,1.8,0,0,0,2.591,20.5H16.909A1.8,1.8,0,0,0,18.5,18.556Zm-1.591.019H2.591V4.915H16.909Z" transform="translate(208 1034)" fill="rgba(112,112,112,0.8)"/>
    <path id="ic_reorder_24px" d="M3,7.845H13.019V7.276H3ZM3,8.983H13.019V8.414H3ZM3,6.707H13.019V6.138H3ZM3,5v.569H13.019V5Z" transform="translate(209.86 1041.192)" fill="rgba(112,112,112,0.8)"/>
    <path id="ic_face_24px" d="M2.79,3.1a.141.141,0,1,0,.141.141A.141.141,0,0,0,2.79,3.1Zm.677,0a.141.141,0,1,0,.141.141A.141.141,0,0,0,3.467,3.1ZM3.128,2A1.128,1.128,0,1,0,4.257,3.128,1.129,1.129,0,0,0,3.128,2Zm0,2.031a.9.9,0,0,1-.9-.9.915.915,0,0,1,.006-.1,1.135,1.135,0,0,0,.588-.606A1.125,1.125,0,0,0,3.74,2.9a1.1,1.1,0,0,0,.254-.029.9.9,0,0,1-.865,1.158Z" transform="translate(210.586 1038.525)" fill="rgba(112,112,112,0.8)"/>
  </g>
</svg>
