<svg xmlns="http://www.w3.org/2000/svg" width="17.5" height="15.058" viewBox="0 0 17.5 15.058">
  <g id="Group_12538" data-name="Group 12538" transform="translate(-37.17 -931.774)">
    <g id="Group_12537" data-name="Group 12537" transform="translate(37.17 931.774)">
      <g id="candle-2" transform="translate(0 0)">
        <path id="Path_54792" data-name="Path 54792" d="M5.426,1.05H.525A.529.529,0,0,1,0,.525.529.529,0,0,1,.525,0h4.9a.529.529,0,0,1,.525.525A.529.529,0,0,1,5.426,1.05Z" transform="translate(11.549 11.536)" fill="#707070"/>
        <path id="Path_54793" data-name="Path 54793" d="M2.625,1.05H.525A.529.529,0,0,1,0,.525.529.529,0,0,1,.525,0h2.1a.529.529,0,0,1,.525.525A.529.529,0,0,1,2.625,1.05Z" transform="translate(0 11.536)" fill="#707070"/>
        <path id="Path_54794" data-name="Path 54794" d="M2.625,1.05H.525A.529.529,0,0,1,0,.525.529.529,0,0,1,.525,0h2.1a.529.529,0,0,1,.525.525A.529.529,0,0,1,2.625,1.05Z" transform="translate(14.349 2.472)" fill="#707070"/>
        <path id="Path_54795" data-name="Path 54795" d="M5.426,1.05H.525A.529.529,0,0,1,0,.525.529.529,0,0,1,.525,0h4.9a.529.529,0,0,1,.525.525A.529.529,0,0,1,5.426,1.05Z" transform="translate(0 2.472)" fill="#707070"/>
        <path id="Path_54796" data-name="Path 54796" d="M6.126,5.251h-4.2A1.77,1.77,0,0,1,0,3.326v-1.4A1.77,1.77,0,0,1,1.925,0h4.2A1.77,1.77,0,0,1,8.051,1.925v1.4A1.77,1.77,0,0,1,6.126,5.251Zm-4.2-4.2c-.623,0-.875.252-.875.875v1.4c0,.623.252.875.875.875h4.2C6.749,4.2,7,3.949,7,3.326v-1.4c0-.623-.252-.875-.875-.875Z" transform="translate(2.1 9.807)" fill="#707070"/>
        <path id="Path_54797" data-name="Path 54797" d="M6.126,5.251h-4.2A1.77,1.77,0,0,1,0,3.326v-1.4A1.77,1.77,0,0,1,1.925,0h4.2A1.77,1.77,0,0,1,8.051,1.925v1.4A1.77,1.77,0,0,1,6.126,5.251Zm-4.2-4.2c-.623,0-.875.252-.875.875v1.4c0,.623.252.875.875.875h4.2C6.749,4.2,7,3.949,7,3.326v-1.4c0-.623-.252-.875-.875-.875Z" transform="translate(7.348 0)" fill="#707070"/>
        <path id="Path_61400" data-name="Path 61400" d="M6.126,5.251h-4.2A1.77,1.77,0,0,1,0,3.326v-1.4A1.77,1.77,0,0,1,1.925,0h4.2A1.77,1.77,0,0,1,8.051,1.925v1.4A1.77,1.77,0,0,1,6.126,5.251Zm-4.2-4.2c-.623,0-.875.252-.875.875v1.4c0,.623.252.875.875.875h4.2C6.749,4.2,7,3.949,7,3.326v-1.4c0-.623-.252-.875-.875-.875Z" transform="translate(7.348 0)" fill="#707070"/>
      </g>
    </g>
    <path id="Path_61401" data-name="Path 61401" d="M1.025.36H5.1c1.1,0,1.52.545,1.52,1.649s-.2,2.31-1.307,2.31l-3.395.16c-1.1,0-2.1.164-2.1-.941S-.08.36,1.025.36Z" transform="translate(44.677 932)" fill="#707070"/>
  </g>
</svg>
