<svg id="Group_12499" data-name="Group 12499" xmlns="http://www.w3.org/2000/svg" width="17.5" height="17.5" viewBox="0 0 17.5 17.5">
  <g id="Group_5720" data-name="Group 5720">
    <path id="Path_53384" data-name="Path 53384" d="M342.272,475h-5.043a3.725,3.725,0,0,1-2.227-.72,2.588,2.588,0,0,1-1.059-1.77l-1-9.844,1.643-.114,1,9.845a1.283,1.283,0,0,0,.526.889,1.851,1.851,0,0,0,1.117.358h5.037a1.876,1.876,0,0,0,1.112-.362,1.3,1.3,0,0,0,.529-.885l.986-9.845,1.643.114-1,9.844a2.594,2.594,0,0,1-1.053,1.766A3.723,3.723,0,0,1,342.272,475Z" transform="translate(-331 -457.5)" fill="#e03"/>
    <path id="Path_53385" data-name="Path 53385" d="M347.716,463.288H331.784a.85.85,0,0,1-.554-.2.614.614,0,0,1,0-.959.849.849,0,0,1,.554-.2h15.931a.849.849,0,0,1,.554.2.614.614,0,0,1,0,.959A.85.85,0,0,1,347.716,463.288Z" transform="translate(-331 -458.7)" fill="#e03"/>
    <path id="Path_53386" data-name="Path 53386" d="M342.173,463.287h-1.356v-.678a2.257,2.257,0,0,0-2.253-2.253,2.285,2.285,0,0,0-2.254,2.253v.678h-1.356v-.678a3.609,3.609,0,0,1,7.219,0Z" transform="translate(-329.814 -459)" fill="#e03"/>
    <path id="Path_53387" data-name="Path 53387" d="M339.83,471.309h-.046a.677.677,0,0,1-.632-.721l.271-3.908a.679.679,0,1,1,1.356.09l-.271,3.907a.679.679,0,0,1-.678.632Z" transform="translate(-329.567 -458.016)" fill="#e03"/>
    <path id="Path_53388" data-name="Path 53388" d="M337.3,471.309a.679.679,0,0,1-.676-.635l-.271-3.907a.679.679,0,1,1,1.356-.09l.271,3.908a.683.683,0,0,1-.034.262.675.675,0,0,1-.6.459Z" transform="translate(-330.06 -458.016)" fill="#e03"/>
  </g>
</svg>
