<svg xmlns="http://www.w3.org/2000/svg" width="17.5" height="17.5" viewBox="0 0 17.5 17.5">
  <path id="ic_style_24px" d="M2.33,18.316l1.123.516V10.514l-2.036,5.4a1.929,1.929,0,0,0,.913,2.4Zm16.339-3.408L14.513,3.883A1.7,1.7,0,0,0,13,2.75a1.555,1.555,0,0,0-.662.138L6.159,5.7A1.848,1.848,0,0,0,5.128,7.355a1.869,1.869,0,0,0,.126.737L9.41,19.117a1.681,1.681,0,0,0,1.533,1.133,1.6,1.6,0,0,0,.645-.138L17.756,17.3a1.9,1.9,0,0,0,.913-2.395ZM6.813,8.276a.885.885,0,0,1-.838-.921.885.885,0,0,1,.838-.921.885.885,0,0,1,.838.921A.885.885,0,0,1,6.813,8.276ZM5.137,18.408A1.77,1.77,0,0,0,6.813,20.25H8.028L5.137,12.568Z" transform="translate(-1.295 -2.75)" fill="rgba(112,112,112,0.8)"/>
</svg>
