<svg xmlns="http://www.w3.org/2000/svg" width="24" height="23.644" viewBox="0 0 24 23.644">
  <path id="Icon_ionic-ios-search" data-name="Icon ionic-ios-search" d="M28.218,26.426,21.544,19.79a9.313,9.313,0,0,0,2.094-5.879,9.492,9.492,0,0,0-9.569-9.418A9.5,9.5,0,0,0,4.5,13.917a9.492,9.492,0,0,0,9.569,9.418A9.626,9.626,0,0,0,20.1,21.23l6.631,6.593a1.038,1.038,0,0,0,1.45.037A1.008,1.008,0,0,0,28.218,26.426ZM14.069,21.31a7.523,7.523,0,0,1-5.312-2.167,7.308,7.308,0,0,1,0-10.452,7.6,7.6,0,0,1,10.625,0,7.308,7.308,0,0,1,0,10.452A7.523,7.523,0,0,1,14.069,21.31Z" transform="translate(-4.5 -4.493)" fill="#fff"/>
</svg>
