<svg xmlns="http://www.w3.org/2000/svg" xmlns:xlink="http://www.w3.org/1999/xlink" width="140" height="17.872" viewBox="0 0 140 17.872">
  <defs>
    <clipPath id="clip-path">
      <rect id="Rectangle_100" data-name="Rectangle 100" width="140" height="17.872" transform="translate(-17831 -10526)" fill="#fff" stroke="#707070" stroke-width="1"/>
    </clipPath>
  </defs>
  <g id="Mask_Group_58" data-name="Mask Group 58" transform="translate(17831 10526)" clip-path="url(#clip-path)">
    <g id="Group_62" data-name="Group 62" transform="translate(-17831 -10525.823)">
      <g id="Group_539" data-name="Group 539">
        <g id="Group_4088" data-name="Group 4088">
          <g id="Group_4086" data-name="Group 4086">
            <path id="Path_55" data-name="Path 55" d="M73.419,131.255H71.894a1.1,1.1,0,0,0-1.1,1.1V143.64a1.1,1.1,0,0,0,1.1,1.1h1.525a1.1,1.1,0,0,0,1.1-1.1V132.353a1.1,1.1,0,0,0-1.1-1.1" transform="translate(-52.254 -127.481)" fill="#fff"/>
            <path id="Path_56" data-name="Path 56" d="M72.069,131.255a2.387,2.387,0,0,0-2.157,1.4l-4.048,8.6c-.1.2-.286.534-.445.534s-.349-.332-.445-.534l-4.075-8.6a2.386,2.386,0,0,0-2.157-1.4H56.387L62.811,143.7a2.621,2.621,0,0,0,2.608,1.2A2.486,2.486,0,0,0,68,143.7l6.424-12.441Z" transform="translate(-56.387 -127.481)" fill="#fff"/>
            <path id="Path_57" data-name="Path 57" d="M124.552,129.9a1.1,1.1,0,0,0-1.1-1.1H121.93a1.1,1.1,0,0,0-1.1,1.1v11.149a3.67,3.67,0,0,0,1.686,3.41,7.635,7.635,0,0,0,4.516.992h1.223a1.1,1.1,0,0,0,1.1-1.1v-1.192h-.922a5.692,5.692,0,0,1-2.893-.584c-1.082-.713-.987-1.985-.987-2.9Z" transform="translate(-37.89 -128.19)" fill="#fff"/>
            <path id="Path_58" data-name="Path 58" d="M109.989,143.154a5.685,5.685,0,0,1-2.895-.586c-1.081-.712-.986-1.985-.986-2.9v-5.419h3.609a1.1,1.1,0,0,0,1.1-1.1v-1.192h-4.708v-2.067a1.1,1.1,0,0,0-1.1-1.1h-1.525a1.1,1.1,0,0,0-1.1,1.1v2.067H94.627v-2.067a1.1,1.1,0,0,0-1.1-1.1H92.006a1.1,1.1,0,0,0-1.1,1.1v2.067H88.586v1.192a1.1,1.1,0,0,0,1.1,1.1h1.223v6.793a3.668,3.668,0,0,0,1.685,3.41c1.05.687,2.257.992,4.516.992h1.223a1.1,1.1,0,0,0,1.1-1.1v-1.192h-.924a5.684,5.684,0,0,1-2.893-.586c-1.082-.712-.987-1.985-.987-2.9v-5.42h7.763v6.793a3.663,3.663,0,0,0,1.685,3.41c1.05.687,2.257.992,4.515.992h1.224a1.1,1.1,0,0,0,1.1-1.1v-1.192Z" transform="translate(-47.147 -128.187)" fill="#fff"/>
            <path id="Path_59" data-name="Path 59" d="M91.03,143.651v-1.192H82.794c-1.368,0-2.927-.153-3.4-1.6A7.957,7.957,0,0,1,79.17,139h9.8a2.8,2.8,0,0,0,1.812-.508,2.4,2.4,0,0,0,.8-2.036,4.378,4.378,0,0,0-2.385-4.376,12.686,12.686,0,0,0-5.567-.865c-1.59,0-4.451,0-6.3,1.273s-2,3.129-2,5.648c0,1.781.1,3.637,1.21,4.91,1.4,1.578,3.434,1.7,5.152,1.7h8.251a1.1,1.1,0,0,0,1.1-1.1m-3.306-7.73c0,.357-.1.789-.826.789H81.6c-1.346,0-2.435.615-2.435,1.373v-1.373a2.755,2.755,0,0,1,.762-2.315,5.178,5.178,0,0,1,3.531-.891,6.2,6.2,0,0,1,3.181.611,2.167,2.167,0,0,1,1.081,1.806" transform="translate(-50.959 -127.491)" fill="#fff"/>
            <path id="Path_60" data-name="Path 60" d="M122.286,143.651v-1.192h-8.236c-1.367,0-2.925-.153-3.4-1.6a7.958,7.958,0,0,1-.221-1.857h9.795a2.8,2.8,0,0,0,1.812-.508,2.4,2.4,0,0,0,.8-2.036,4.378,4.378,0,0,0-2.385-4.376,12.687,12.687,0,0,0-5.567-.865c-1.59,0-4.451,0-6.295,1.273s-2,3.129-2,5.648c0,1.781.094,3.637,1.209,4.91,1.4,1.578,3.434,1.7,5.152,1.7h8.251a1.1,1.1,0,0,0,1.1-1.1m-3.307-7.729c0,.357-.1.789-.826.789H112.86c-1.345,0-2.435.615-2.435,1.373v-1.373a2.755,2.755,0,0,1,.762-2.315,5.178,5.178,0,0,1,3.531-.891,6.2,6.2,0,0,1,3.181.611,2.167,2.167,0,0,1,1.081,1.806" transform="translate(-41.984 -127.491)" fill="#fff"/>
            <path id="Path_61" data-name="Path 61" d="M73.419,128.322H71.894a1.1,1.1,0,0,0-1.1,1.1V132.1h.016a1.782,1.782,0,0,1,1.844-1.273h.763a1.1,1.1,0,0,0,1.1-1.1v-.3a1.1,1.1,0,0,0-1.1-1.1" transform="translate(-52.254 -128.322)" fill="#fff"/>
          </g>
          <g id="Group_4087" data-name="Group 4087" transform="translate(98.052 4.798)">
            <path id="Path_62" data-name="Path 62" d="M132.757,144.663v-1.369H139.8q1.332,0,1.333-1.765a1.9,1.9,0,0,0-.27-1.037,2.093,2.093,0,0,0-1.135-.712l-4.991-1.658a3.126,3.126,0,0,1-1.658-1.1,3.479,3.479,0,0,1-.506-2.019,3.127,3.127,0,0,1,.7-2.18,2.777,2.777,0,0,1,2.162-.774h6.829v1.368h-6.524a1.4,1.4,0,0,0-1.082.378,1.848,1.848,0,0,0-.341,1.245,3.467,3.467,0,0,0,.054.683,1.207,1.207,0,0,0,.332.568,1.954,1.954,0,0,0,.8.478l4.757,1.584a4.822,4.822,0,0,1,2,1.127,2.929,2.929,0,0,1,.613,2.046,3.81,3.81,0,0,1-.622,2.271,2.284,2.284,0,0,1-1.991.864Z" transform="translate(-132.575 -132.051)" fill="#fff"/>
            <path id="Path_63" data-name="Path 63" d="M146.785,144.663h-1.137a3.074,3.074,0,0,1-2.369-.756,3.369,3.369,0,0,1-.674-2.306V136.34h-1.4v-1.227h1.407v-3.061h1.514v3.062h2.664v1.227h-2.666v5.17a1.993,1.993,0,0,0,.458,1.5,2.329,2.329,0,0,0,1.578.424h.63Z" transform="translate(-130.1 -132.051)" fill="#fff"/>
            <path id="Path_64" data-name="Path 64" d="M155.716,139.194a5.187,5.187,0,0,1-1.143,3.8,6.877,6.877,0,0,1-7.515,0,5.178,5.178,0,0,1-1.144-3.8,5.055,5.055,0,0,1,1.144-3.757,7.02,7.02,0,0,1,7.515,0A5.074,5.074,0,0,1,155.716,139.194Zm-8.215,0a4.285,4.285,0,0,0,.748,2.866,4.4,4.4,0,0,0,5.134,0,4.282,4.282,0,0,0,.748-2.866,4.171,4.171,0,0,0-.738-2.819,4.545,4.545,0,0,0-5.155,0,4.152,4.152,0,0,0-.738,2.819Z" transform="translate(-128.743 -131.393)" fill="#fff"/>
            <path id="Path_65" data-name="Path 65" d="M154.691,143.981v-6.108a3.479,3.479,0,0,1,.865-2.6,3.684,3.684,0,0,1,2.649-.839h1.045v1.227h-.775a2.149,2.149,0,0,0-1.748.631,3.059,3.059,0,0,0-.522,1.963v5.73Z" transform="translate(-126.222 -131.369)" fill="#fff"/>
            <path id="Path_66" data-name="Path 66" d="M166.848,144h-4.991a2.925,2.925,0,0,1-2.72-1.18,6.982,6.982,0,0,1-.722-3.556,5.814,5.814,0,0,1,.973-3.794,4.271,4.271,0,0,1,3.369-1.127,5.317,5.317,0,0,1,3.207.839,3.341,3.341,0,0,1,1.135,2.873,2.02,2.02,0,0,1-.326,1.272,1.33,1.33,0,0,1-1.1.4h-5.693a6.954,6.954,0,0,0,.081,1.146,3.737,3.737,0,0,0,.3.945,1.5,1.5,0,0,0,.676.713,2.425,2.425,0,0,0,1.144.242h4.667Zm-6.865-5.494h5.1c.288,0,.433-.164.433-.488v-.072q0-2.376-2.739-2.377a2.93,2.93,0,0,0-2.144.656A3.2,3.2,0,0,0,159.983,138.51Z" transform="translate(-125.153 -131.393)" fill="#fff"/>
          </g>
        </g>
      </g>
    </g>
  </g>
</svg>
