<svg xmlns="http://www.w3.org/2000/svg" width="16" height="16" viewBox="0 0 16 16">
  <g id="Group_480" data-name="Group 480" transform="translate(-24 -282)">
    <g id="Path_44454" data-name="Path 44454" transform="translate(24 282)" fill="#000" stroke-linecap="round">
      <path d="M 14 15.25 L 2 15.25 C 1.310750007629395 15.25 0.75 14.68924999237061 0.75 14 L 0.75 2 C 0.75 1.310750007629395 1.310750007629395 0.75 2 0.75 L 14 0.75 C 14.68924999237061 0.75 15.25 1.310750007629395 15.25 2 L 15.25 14 C 15.25 14.68924999237061 14.68924999237061 15.25 14 15.25 Z" stroke="none"/>
      <path d="M 2 1.5 C 1.724300384521484 1.5 1.5 1.724300384521484 1.5 2 L 1.5 14 C 1.5 14.27569961547852 1.724300384521484 14.5 2 14.5 L 14 14.5 C 14.27569961547852 14.5 14.5 14.27569961547852 14.5 14 L 14.5 2 C 14.5 1.724300384521484 14.27569961547852 1.5 14 1.5 L 2 1.5 M 2 0 L 14 0 C 15.10457038879395 0 16 0.8954296112060547 16 2 L 16 14 C 16 15.10457038879395 15.10457038879395 16 14 16 L 2 16 C 0.8954296112060547 16 0 15.10457038879395 0 14 L 0 2 C 0 0.8954296112060547 0.8954296112060547 0 2 0 Z" stroke="none" fill="#000"/>
    </g>
    <path id="Path_44453" data-name="Path 44453" d="M13.538,6.769,8.369,12.923,6.154,10.462" transform="translate(22.154 280.154)" fill="none" stroke="#fff" stroke-linecap="round" stroke-linejoin="round" stroke-width="1.5"/>
  </g>
</svg>
