<svg width="64" height="64" viewBox="0 0 64 64" fill="none" xmlns="http://www.w3.org/2000/svg">
<path d="M32 2C37.9334 2 43.7336 3.75947 48.6671 7.05591C53.6006 10.3524 57.4458 15.0377 59.7164 20.5195C61.987 26.0013 62.5811 32.0333 61.4236 37.8527C60.266 43.6721 57.4088 49.0176 53.2132 53.2132C49.0176 57.4088 43.6721 60.266 37.8527 61.4236C32.0333 62.5811 26.0013 61.987 20.5195 59.7164C15.0377 57.4458 10.3524 53.6006 7.05591 48.6671C3.75947 43.7336 2 37.9334 2 32C2 24.0435 5.16071 16.4129 10.7868 10.7868C16.4129 5.16071 24.0435 2 32 2V2Z" fill="#FFEEEA"/>
<path d="M61.5379 31.9999C61.5379 26.1579 59.8056 20.447 56.5599 15.5895C53.3142 10.732 48.701 6.94604 43.3036 4.71037C37.9063 2.47471 31.9672 1.88976 26.2373 3.02949C20.5075 4.16922 15.2444 6.98244 11.1134 11.1134C6.98244 15.2444 4.16922 20.5075 3.02949 26.2373C1.88976 31.9672 2.47471 37.9063 4.71037 43.3036C6.94604 48.701 10.732 53.3142 15.5895 56.5599C20.447 59.8056 26.1579 61.5379 31.9999 61.5379C39.8332 61.5358 47.3451 58.4231 52.8841 52.8841C58.4231 47.3451 61.5358 39.8332 61.5379 31.9999V31.9999Z" stroke="#FF5F40" stroke-width="4" stroke-miterlimit="10"/>
<path d="M17.2148 29.5639V32.0259C17.2237 35.0199 18.1403 37.9409 19.8438 40.403C21.5473 42.8652 23.9575 44.7528 26.7561 45.8166C29.5548 46.8805 32.6102 47.0705 35.5191 46.3615C38.428 45.6526 41.0535 44.0781 43.0488 41.8459M46.7408 34.4409V31.9799C46.7298 28.991 45.8136 26.0756 44.1129 23.6177C42.4122 21.1599 40.0068 19.2749 37.2136 18.2111C34.4204 17.1473 31.3705 16.9546 28.4657 17.6584C25.5608 18.3623 22.9373 19.9296 20.9408 22.1539L46.7408 34.4409Z" stroke="#FF5F40" stroke-width="4" stroke-linecap="round" stroke-linejoin="round"/>
<path d="M50.4819 31.9999L46.8529 35.6309L43.0529 31.9999M13.5149 31.9999L17.1439 28.3689L20.9439 31.9999H13.5149Z" stroke="#FF5F40" stroke-width="4" stroke-linecap="round" stroke-linejoin="round"/>
</svg>
