<svg xmlns="http://www.w3.org/2000/svg" xmlns:xlink="http://www.w3.org/1999/xlink" width="64" height="64" viewBox="0 0 64 64">
  <defs>
    <clipPath id="clip-path">
      <rect id="Rectangle_4981" data-name="Rectangle 4981" width="64" height="64" transform="translate(246 308)" fill="#fff" stroke="#707070" stroke-width="1"/>
    </clipPath>
  </defs>
  <g id="Group_2835" data-name="Group 2835" transform="translate(-158 -308)">
    <g id="Group_2819" data-name="Group 2819" transform="translate(-4931 -4274)">
      <path id="Path_46813" data-name="Path 46813" d="M28.5,0A28.5,28.5,0,1,1,0,28.5,28.5,28.5,0,0,1,28.5,0Z" transform="translate(5093 4585)" fill="#eaebfe"/>
    </g>
    <g id="Mask_Group_620" data-name="Mask Group 620" transform="translate(-88)" clip-path="url(#clip-path)">
      <g id="alert-circle-outline" transform="translate(238.615 300.615)">
        <path id="Path_46767" data-name="Path 46767" d="M68.923,39.385A29.538,29.538,0,1,0,39.385,68.923,29.546,29.546,0,0,0,68.923,39.385Z" fill="none" stroke="#3b49f9" stroke-miterlimit="10" stroke-width="4"/>
        <path id="Path_46768" data-name="Path 46768" d="M38.5,25.546l.883,18.762.882-18.762a.883.883,0,0,0-.891-.923h0a.883.883,0,0,0-.874.923Z" fill="none" stroke="#3b49f9" stroke-linecap="round" stroke-linejoin="round" stroke-width="4.923"/>
        <path id="Path_46769" data-name="Path 46769" d="M39.385,56.6a3.077,3.077,0,1,1,3.077-3.077A3.077,3.077,0,0,1,39.385,56.6Z" fill="#3b49f9"/>
      </g>
    </g>
  </g>
</svg>
