<svg xmlns="http://www.w3.org/2000/svg" width="20" height="20" viewBox="0 0 20 20">
  <g id="Group_21368" data-name="Group 21368" transform="translate(-0.53 -0.264)">
    <g id="layer1" transform="translate(0.53 0.264)">
      <path id="path29465" d="M35.1,33.031h1.364a1.281,1.281,0,0,1,1.284,1.284V44.407a.823.823,0,0,1-1.284.742L35.1,44.307c-.605-.374-1.284-.573-1.284-1.284V34.315A1.281,1.281,0,0,1,35.1,33.031Z" transform="translate(-33.178 -27.104)" fill="#005fc1"/>
      <path id="path15399" d="M41.878,36.023a.642.642,0,0,0-.645.645v2.118a.623.623,0,0,1-.64.64H36.949a.642.642,0,1,0,0,1.284h3.645a1.933,1.933,0,0,0,1.924-1.924V36.668A.642.642,0,0,0,41.878,36.023Z" transform="translate(-28.474 -22.835)" fill="#005fc1"/>
      <path id="path15339" d="M2.759.265a2.136,2.136,0,0,0-2.229,2V15.679a2.2,2.2,0,0,0,.676,1.62,4.522,4.522,0,0,0,1.2.753l4,1.988a2.223,2.223,0,0,0,1.895.025A1.737,1.737,0,0,0,9.35,18.519V6.225a2.29,2.29,0,0,0-.44-1.418,2.933,2.933,0,0,0-.972-.767L3.451,1.6h9.792a.693.693,0,0,1,.743.669V5.1a.748.748,0,0,0,1.488,0V2.267a2.137,2.137,0,0,0-2.23-2ZM2.018,2.379l5.151,2.8a1.56,1.56,0,0,1,.511.384.978.978,0,0,1,.18.664V18.519a.327.327,0,0,1-.23.359.646.646,0,0,1-.506-.005l-4-1.988a3.638,3.638,0,0,1-.83-.5.814.814,0,0,1-.275-.7Z" transform="translate(-0.53 -0.264)" fill="#2970ff"/>
      <g id="Group_21367" data-name="Group 21367" transform="translate(5.207 6.744)">
        <path id="path15343" d="M42.849,33.529a.644.644,0,0,1,.351.138l2.5,2.009a.648.648,0,0,1,0,1l-2.5,2.009a.642.642,0,1,1-.806-1l1.078-.868H38.11a.642.642,0,0,1,0-1.284H43.47l-1.076-.863a.643.643,0,0,1,.455-1.142Z" transform="translate(-31.142 -33.526)" fill="#005fc1"/>
        <path id="path15349" d="M35.457,34.561a.644.644,0,0,0-.3,1.18l1.251.82a.641.641,0,0,0,.706-1.071l-1.256-.825a.642.642,0,0,0-.4-.1Z" transform="translate(-34.863 -32.052)" fill="#005fc1"/>
      </g>
    </g>
  </g>
</svg>
