<svg xmlns="http://www.w3.org/2000/svg" width="20.75" height="20.453" viewBox="0 0 20.75 20.453">
  <path id="Icon_ionic-ios-search" data-name="Icon ionic-ios-search" d="M24.265,22.77,18.7,17.24a7.761,7.761,0,0,0,1.745-4.9A7.975,7.975,0,0,0,4.5,12.347,7.91,7.91,0,0,0,12.474,20.2,8.021,8.021,0,0,0,17.5,18.441l5.526,5.494a.865.865,0,0,0,1.208.031A.84.84,0,0,0,24.265,22.77ZM12.474,18.507A6.269,6.269,0,0,1,8.047,16.7a6.09,6.09,0,0,1,0-8.71,6.33,6.33,0,0,1,8.854,0,6.09,6.09,0,0,1,0,8.71A6.269,6.269,0,0,1,12.474,18.507Z" transform="translate(-4.125 -4.118)" fill="#000" stroke="#000" stroke-width="0.75"/>
</svg>
