<svg id="Component_2_1" data-name="Component 2 – 1" xmlns="http://www.w3.org/2000/svg" xmlns:xlink="http://www.w3.org/1999/xlink" width="56" height="56" viewBox="0 0 56 56">
  <defs>
    <linearGradient id="linear-gradient" x1="0.82" y1="0.121" x2="0.22" y2="0.871" gradientUnits="objectBoundingBox">
      <stop offset="0" stop-color="#18dd2f"/>
      <stop offset="1" stop-color="#07b723"/>
    </linearGradient>
    <clipPath id="clip-path">
      <rect id="Rectangle_8733" data-name="Rectangle 8733" width="24" height="24" transform="translate(181 541)" fill="#fff" stroke="#707070" stroke-width="1"/>
    </clipPath>
  </defs>
  <g id="Group_28" data-name="Group 28" transform="translate(-52 -481)">
    <rect id="Rectangle_26" data-name="Rectangle 26" width="56" height="56" rx="28" transform="translate(52 481)" fill="url(#linear-gradient)"/>
  </g>
  <g id="Mask_Group_674" data-name="Mask Group 674" transform="translate(-165 -525)" clip-path="url(#clip-path)">
    <path id="bill" d="M23.189,10.854a2.654,2.654,0,0,0-1.957-.725,2.614,2.614,0,0,0-1.427.521l-5.525,4.14-.006,0a3.759,3.759,0,0,1-4.548,0l-.006,0L4.192,10.647a2.611,2.611,0,0,0-1.424-.519,2.656,2.656,0,0,0-1.957.725A2.591,2.591,0,0,0,0,12.753v5.622A5.631,5.631,0,0,0,5.625,24h12.75A5.631,5.631,0,0,0,24,18.375V12.753A2.592,2.592,0,0,0,23.189,10.854Zm-1.064,7.521a3.754,3.754,0,0,1-3.75,3.75H5.625a3.754,3.754,0,0,1-3.75-3.75V12.753a.723.723,0,0,1,.226-.539A.786.786,0,0,1,2.633,12h.037a.73.73,0,0,1,.4.149l5.522,4.138a5.639,5.639,0,0,0,6.816,0l5.519-4.136a.732.732,0,0,1,.4-.15.782.782,0,0,1,.568.213.723.723,0,0,1,.226.539v5.622ZM2.344,7.359V5.625A5.631,5.631,0,0,1,7.969,0h8.156A5.631,5.631,0,0,1,21.75,5.625V7.359a.938.938,0,0,1-1.875,0V5.625a3.754,3.754,0,0,0-3.75-3.75H7.969a3.754,3.754,0,0,0-3.75,3.75V7.359a.937.937,0,0,1-1.875,0Zm8.789,4.969v-.122A7.308,7.308,0,0,1,9.9,11.84a.938.938,0,1,1,.693-1.742,4.975,4.975,0,0,0,1.6.356.469.469,0,0,0,.469-.469c0-.263-.278-.469-.633-.469A2.468,2.468,0,0,1,9.352,7.172,2.348,2.348,0,0,1,11.133,4.9V4.828a.938.938,0,0,1,1.875,0V5a7.522,7.522,0,0,1,.809.266.937.937,0,0,1-.68,1.748A3.7,3.7,0,0,0,11.7,6.7a.469.469,0,0,0-.469.469c0,.267.343.469.8.469a2.4,2.4,0,0,1,2.508,2.344,2.347,2.347,0,0,1-1.523,2.2v.148a.938.938,0,0,1-1.875,0Z" transform="translate(181 541)" fill="#f6f6f6"/>
  </g>
</svg>
