<svg width="24" height="24" viewBox="0 0 24 24" fill="none" xmlns="http://www.w3.org/2000/svg">
<path d="M12 0C14.3734 0 16.6935 0.703788 18.6668 2.02236C20.6402 3.34094 22.1783 5.21509 23.0866 7.4078C23.9948 9.60051 24.2324 12.0133 23.7694 14.3411C23.3064 16.6689 22.1635 18.8071 20.4853 20.4853C18.8071 22.1635 16.6689 23.3064 14.3411 23.7694C12.0133 24.2324 9.60051 23.9948 7.4078 23.0866C5.21509 22.1783 3.34094 20.6402 2.02236 18.6668C0.703788 16.6935 0 14.3734 0 12C0 8.8174 1.26428 5.76516 3.51472 3.51472C5.76516 1.26428 8.8174 0 12 0Z" fill="url(#paint0_linear_307_7)"/>
<path d="M15.669 10.169H7.466C7.4048 10.169 7.34421 10.1569 7.28767 10.1335C7.23113 10.1101 7.17976 10.0758 7.13649 10.0325C7.09322 9.98924 7.05889 9.93787 7.03547 9.88133C7.01205 9.82479 7 9.7642 7 9.703C7 9.6418 7.01205 9.58121 7.03547 9.52467C7.05889 9.46813 7.09322 9.41676 7.13649 9.37349C7.17976 9.33022 7.23113 9.29589 7.28767 9.27247C7.34421 9.24905 7.4048 9.237 7.466 9.237H15.666C15.7896 9.237 15.9081 9.2861 15.9955 9.37349C16.0829 9.46088 16.132 9.57941 16.132 9.703C16.132 9.82659 16.0829 9.94512 15.9955 10.0325C15.9081 10.1199 15.7896 10.169 15.666 10.169H15.669Z" fill="white"/>
<path d="M9.69995 12.406C9.63869 12.4063 9.57799 12.3944 9.52135 12.371C9.46471 12.3477 9.41325 12.3134 9.36995 12.27L7.13595 10.033C7.04923 9.94508 7.00061 9.82653 7.00061 9.70302C7.00061 9.57951 7.04923 9.46097 7.13595 9.37302L9.37295 7.13602C9.41568 7.09006 9.46724 7.05318 9.52454 7.02759C9.58184 7.002 9.64372 6.98822 9.70647 6.98708C9.76921 6.98593 9.83155 6.99745 9.88975 7.02094C9.94794 7.04443 10.0008 7.0794 10.0452 7.12378C10.0896 7.16816 10.1245 7.22102 10.148 7.27922C10.1715 7.33742 10.183 7.39975 10.1819 7.4625C10.1807 7.52525 10.167 7.58712 10.1414 7.64443C10.1158 7.70173 10.0789 7.75329 10.0329 7.79602L8.11895 9.70002L10.0329 11.61C10.1197 11.698 10.1683 11.8165 10.1683 11.94C10.1683 12.0635 10.1197 12.1821 10.0329 12.27C9.98964 12.3134 9.93819 12.3477 9.88155 12.371C9.82491 12.3944 9.76421 12.4063 9.70295 12.406H9.69995Z" fill="white"/>
<path d="M17.533 15.762H9.33001C9.20642 15.762 9.08789 15.7129 9.0005 15.6255C8.91311 15.5381 8.86401 15.4196 8.86401 15.296C8.86401 15.1724 8.91311 15.0539 9.0005 14.9665C9.08789 14.8791 9.20642 14.83 9.33001 14.83H17.53C17.6536 14.83 17.7721 14.8791 17.8595 14.9665C17.9469 15.0539 17.996 15.1724 17.996 15.296C17.996 15.4196 17.9469 15.5381 17.8595 15.6255C17.7721 15.7129 17.6536 15.762 17.53 15.762H17.533Z" fill="white"/>
<path d="M15.3001 18C15.2388 18.0003 15.1781 17.9884 15.1215 17.965C15.0648 17.9417 15.0134 17.9074 14.9701 17.864C14.8833 17.7761 14.8347 17.6576 14.8347 17.534C14.8347 17.4105 14.8833 17.292 14.9701 17.204L16.8811 15.3L14.9661 13.389C14.8837 13.3005 14.839 13.1835 14.8412 13.0626C14.8434 12.9417 14.8924 12.8263 14.9779 12.7408C15.0634 12.6553 15.1787 12.6063 15.2996 12.6041C15.4205 12.6019 15.5375 12.6467 15.6261 12.729L17.8631 14.966C17.9498 15.054 17.9984 15.1725 17.9984 15.296C17.9984 15.4196 17.9498 15.5381 17.8631 15.626L15.6261 17.863C15.5397 17.95 15.4225 17.9992 15.3001 18Z" fill="white"/>
<defs>
<linearGradient id="paint0_linear_307_7" x1="20.856" y1="4.584" x2="3.024" y2="19.56" gradientUnits="userSpaceOnUse">
<stop stop-color="#00EDE3"/>
<stop offset="1" stop-color="#00C7BF"/>
</linearGradient>
</defs>
</svg>
