<svg xmlns="http://www.w3.org/2000/svg" xmlns:xlink="http://www.w3.org/1999/xlink" width="56" height="56" viewBox="0 0 56 56">
  <defs>
    <linearGradient id="linear-gradient" x1="0.869" y1="0.191" x2="0.126" y2="0.815" gradientUnits="objectBoundingBox">
      <stop offset="0" stop-color="#00ede3"/>
      <stop offset="1" stop-color="#00c7bf"/>
    </linearGradient>
    <clipPath id="clip-path">
      <rect id="Rectangle_8738" data-name="Rectangle 8738" width="24" height="24" transform="translate(95 324)" fill="#fff" stroke="#707070" stroke-width="1"/>
    </clipPath>
  </defs>
  <path id="Path_89" data-name="Path 89" d="M28,0A28,28,0,1,1,0,28,28,28,0,0,1,28,0Z" fill="url(#linear-gradient)"/>
  <g id="Mask_Group_677" data-name="Mask Group 677" transform="translate(-79 -308)" clip-path="url(#clip-path)">
    <g id="XMLID_2_" transform="translate(97.845 325.714)">
      <g id="Group_5806" data-name="Group 5806" transform="translate(0)">
        <g id="Group_5805" data-name="Group 5805">
          <path id="Path_50552" data-name="Path 50552" d="M16.28,15.384a4.474,4.474,0,0,1-3.621,1.848H10.573a1.667,1.667,0,0,1-1.567-1.1,5.291,5.291,0,0,1-.843-.333A5.675,5.675,0,0,1,6.59,14.636,6.72,6.72,0,0,0,1.32,21.2v.42a1.045,1.045,0,0,0,1.045,1.045H18.583a1.045,1.045,0,0,0,1.045-1.045V21.2A6.715,6.715,0,0,0,16.28,15.384Z" transform="translate(-1.32 -1.234)" fill="none" stroke="#fff" stroke-width="1.6"/>
          <path id="Path_50553" data-name="Path 50553" d="M5.973,10.391a1.19,1.19,0,0,0,1.043-.616l.016.043,0,.013a4.646,4.646,0,0,0,2.619,2.758,1.665,1.665,0,0,1,1.411-.78h2.086a1.168,1.168,0,0,0,.572-.154,2.358,2.358,0,0,0,.674-.778,6.016,6.016,0,0,0,.522-1.1,1.2,1.2,0,0,0,.329.379v.512a2.1,2.1,0,0,1-2.1,2.1H11.068a.714.714,0,1,0,0,1.428h2.086a3.529,3.529,0,0,0,3.525-3.525v-.512a1.188,1.188,0,0,0,.476-.952V6.221a1.188,1.188,0,0,0-.494-.965,5.71,5.71,0,0,0-11.384,0,1.188,1.188,0,0,0-.494.965V9.2A1.191,1.191,0,0,0,5.973,10.391Zm5-8.962a4.287,4.287,0,0,1,4.26,3.857,1.2,1.2,0,0,0-.335.413,4.334,4.334,0,0,0-3.926-2.982A4.337,4.337,0,0,0,7.046,5.692l0,.007a1.2,1.2,0,0,0-.335-.413A4.288,4.288,0,0,1,10.969,1.428Z" transform="translate(-1.814)" fill="none" stroke="#fff" stroke-width="1"/>
        </g>
      </g>
    </g>
  </g>
</svg>
